<svg xmlns="http://www.w3.org/2000/svg" xmlns:xlink="http://www.w3.org/1999/xlink" width="500" zoomAndPan="magnify" viewBox="0 0 375 374.999991" height="500" preserveAspectRatio="xMidYMid meet" version="1.0"><defs><filter x="0%" y="0%" width="100%" height="100%" id="d1389da598"><feColorMatrix values="0 0 0 0 1 0 0 0 0 1 0 0 0 0 1 0 0 0 1 0" color-interpolation-filters="sRGB"/></filter><g/><clipPath id="0485050f7f"><path d="M 0.902344 0.902344 L 354.097656 0.902344 L 354.097656 354.097656 L 0.902344 354.097656 Z M 0.902344 0.902344 " clip-rule="nonzero"/></clipPath><clipPath id="a71d207c46"><path d="M 177.5 0.902344 C 79.96875 0.902344 0.902344 79.96875 0.902344 177.5 C 0.902344 275.03125 79.96875 354.097656 177.5 354.097656 C 275.03125 354.097656 354.097656 275.03125 354.097656 177.5 C 354.097656 79.96875 275.03125 0.902344 177.5 0.902344 Z M 177.5 0.902344 " clip-rule="nonzero"/></clipPath><clipPath id="6108c107f4"><path d="M 0.902344 0.902344 L 354.097656 0.902344 L 354.097656 354.097656 L 0.902344 354.097656 Z M 0.902344 0.902344 " clip-rule="nonzero"/></clipPath><clipPath id="c38cf7532c"><path d="M 177.5 0.902344 C 79.96875 0.902344 0.902344 79.96875 0.902344 177.5 C 0.902344 275.03125 79.96875 354.097656 177.5 354.097656 C 275.03125 354.097656 354.097656 275.03125 354.097656 177.5 C 354.097656 79.96875 275.03125 0.902344 177.5 0.902344 Z M 177.5 0.902344 " clip-rule="nonzero"/></clipPath><clipPath id="410b16c339"><rect x="0" width="355" y="0" height="355"/></clipPath><mask id="a046a17b17"><g filter="url(#d1389da598)"><rect x="-92.5" width="540" fill="#000000" y="-92.499998" height="539.999987" fill-opacity="0.33"/></g></mask><clipPath id="1c8c3c0507"><path d="M 1.230469 1.445312 L 242.660156 1.445312 L 242.660156 270.554688 L 1.230469 270.554688 Z M 1.230469 1.445312 " clip-rule="nonzero"/></clipPath><clipPath id="7403a0d108"><path d="M 1.230469 1.445312 L 242.660156 1.445312 L 242.660156 270.554688 L 1.230469 270.554688 Z M 1.230469 1.445312 " clip-rule="nonzero"/></clipPath><clipPath id="62a80aec79"><rect x="0" width="244" y="0" height="271"/></clipPath><clipPath id="05b4048685"><rect x="0" width="247" y="0" height="137"/></clipPath><clipPath id="46612495c9"><rect x="0" width="202" y="0" height="125"/></clipPath><clipPath id="968c35c3bc"><rect x="0" width="355" y="0" height="355"/></clipPath></defs><g transform="matrix(1, 0, 0, 1, 10, 10)"><g clip-path="url(#968c35c3bc)"><g clip-path="url(#0485050f7f)"><g clip-path="url(#a71d207c46)"><g><g clip-path="url(#410b16c339)"><g clip-path="url(#6108c107f4)"><g clip-path="url(#c38cf7532c)"><path fill="#0070a8" d="M 0.902344 0.902344 L 354.097656 0.902344 L 354.097656 354.097656 L 0.902344 354.097656 Z M 0.902344 0.902344 " fill-opacity="1" fill-rule="nonzero"/></g></g></g></g></g></g><g mask="url(#a046a17b17)"><g transform="matrix(1, 0, 0, 1, 49, 47)"><g clip-path="url(#62a80aec79)"><g clip-path="url(#1c8c3c0507)"><path fill="#ffffff" d="M 240.488281 135.359375 C 242.476562 133.703125 242.972656 130.886719 241.730469 128.648438 C 240.15625 125.582031 236.507812 123.179688 234.105469 123.675781 C 233.109375 123.84375 232.117188 124.257812 231.289062 124.917969 C 228.800781 127.324219 226.316406 129.726562 223.996094 132.128906 L 222.007812 134.117188 L 220.597656 132.792969 C 219.4375 131.632812 217.449219 131.632812 216.289062 132.792969 L 206.59375 142.320312 L 206.59375 126.078125 L 207.007812 123.84375 C 224.742188 123.425781 238.996094 108.84375 238.996094 91.027344 C 238.996094 81.828125 235.183594 73.457031 229.050781 67.492188 C 222.917969 59.535156 213.222656 54.316406 202.367188 54.316406 C 202.035156 54.316406 201.703125 54.316406 201.371094 54.316406 C 199.882812 52.160156 198.304688 50.171875 196.484375 48.347656 C 197.726562 47.269531 198.886719 46.277344 200.046875 45.199219 C 205.019531 40.308594 208.167969 35.253906 209.742188 29.703125 C 210.652344 26.554688 210.652344 23.40625 210.570312 20.339844 C 210.570312 19.675781 210.570312 19.097656 210.570312 18.433594 C 210.570312 17.851562 210.570312 17.355469 210.652344 17.023438 L 211.8125 17.023438 C 212.558594 17.023438 213.386719 16.859375 213.96875 16.527344 C 214.050781 16.445312 214.21875 16.445312 214.21875 16.363281 C 215.792969 15.449219 216.703125 13.792969 216.785156 12.050781 L 216.785156 9.566406 C 216.785156 7.328125 213.304688 3.847656 210.488281 2.355469 C 209.742188 1.777344 208.914062 1.445312 207.917969 1.445312 L 156.953125 1.445312 C 154.632812 1.445312 152.8125 3.351562 152.8125 5.589844 L 152.8125 8.074219 C 152.8125 8.570312 152.894531 9.070312 153.058594 9.566406 C 153.226562 11.636719 156.871094 15.449219 158.113281 16.277344 C 158.199219 20.835938 158.777344 25.558594 161.179688 29.953125 C 162.507812 32.355469 164.082031 34.59375 165.738281 36.664062 C 166.980469 38.820312 168.472656 40.808594 170.046875 42.628906 L 30.664062 42.628906 C 24.695312 42.628906 19.890625 47.4375 19.890625 53.402344 L 19.890625 78.429688 L 6.714844 78.429688 C 3.648438 78.429688 1.246094 80.917969 1.246094 83.898438 C 1.246094 84.644531 1.410156 85.308594 1.660156 85.972656 C 1.578125 86.386719 1.492188 86.800781 1.492188 87.214844 C 1.492188 89.78125 3.566406 91.855469 6.132812 91.855469 L 19.890625 91.855469 L 19.890625 120.527344 L 6.714844 120.527344 C 3.648438 120.527344 1.246094 123.011719 1.246094 125.996094 C 1.246094 126.742188 1.410156 127.40625 1.660156 128.066406 C 1.578125 128.484375 1.492188 128.898438 1.492188 129.3125 C 1.492188 131.878906 3.566406 133.953125 6.132812 133.953125 L 19.890625 133.953125 L 19.890625 160.882812 L 6.714844 160.882812 C 3.648438 160.882812 1.246094 163.371094 1.246094 166.355469 C 1.246094 167.097656 1.410156 167.761719 1.660156 168.425781 C 1.578125 168.839844 1.492188 169.253906 1.492188 169.667969 C 1.492188 172.238281 3.566406 174.308594 6.132812 174.308594 L 19.890625 174.308594 L 19.890625 201.242188 L 6.714844 201.242188 C 3.648438 201.242188 1.246094 203.726562 1.246094 206.710938 C 1.246094 207.457031 1.410156 208.121094 1.660156 208.78125 C 1.578125 209.195312 1.492188 209.609375 1.492188 210.027344 C 1.492188 212.59375 3.566406 214.667969 6.132812 214.667969 L 19.890625 214.667969 L 19.890625 244.25 C 19.890625 248.640625 22.542969 252.453125 26.355469 254.113281 C 27.183594 257.59375 29.667969 260.492188 32.984375 261.816406 C 33.976562 266.789062 38.371094 270.519531 43.589844 270.519531 L 195.820312 270.519531 C 200.710938 270.519531 204.9375 267.203125 206.179688 262.648438 C 206.59375 261.570312 206.757812 260.410156 206.757812 259.25 L 206.757812 185.246094 C 210.324219 182.679688 213.96875 179.445312 217.367188 176.050781 C 222.585938 170.828125 226.980469 165.441406 229.714844 160.800781 C 231.785156 157.402344 233.773438 152.929688 231.867188 150.855469 L 233.195312 149.53125 C 234.355469 148.289062 234.355469 146.382812 233.195312 145.140625 L 231.785156 143.730469 L 234.023438 141.574219 C 236.175781 139.503906 238.332031 137.433594 240.488281 135.359375 Z M 38.203125 128.066406 C 38.453125 127.40625 38.617188 126.742188 38.617188 125.996094 C 38.617188 124.421875 37.957031 122.929688 36.796875 121.9375 C 37.707031 121.4375 38.785156 121.191406 39.863281 121.191406 C 43.425781 121.191406 46.324219 124.089844 46.324219 127.652344 C 46.324219 128.566406 46.160156 129.476562 45.746094 130.304688 C 44.75 132.542969 42.429688 134.199219 39.863281 134.199219 C 38.617188 134.199219 37.375 133.785156 36.382812 133.207031 C 36.628906 133.039062 36.878906 132.792969 37.128906 132.542969 C 37.871094 131.714844 38.371094 130.636719 38.371094 129.394531 C 38.371094 128.898438 38.289062 128.484375 38.203125 128.066406 Z M 36.464844 90.941406 C 37.625 90.113281 38.289062 88.707031 38.289062 87.214844 C 38.289062 86.800781 38.203125 86.386719 38.121094 85.972656 C 38.371094 85.308594 38.535156 84.644531 38.535156 83.898438 C 38.535156 82.574219 38.039062 81.332031 37.292969 80.417969 C 38.039062 80.085938 38.949219 79.921875 39.863281 79.921875 C 43.425781 79.921875 46.324219 82.820312 46.324219 86.386719 C 46.324219 87.296875 46.160156 88.207031 45.746094 89.039062 C 44.75 91.273438 42.429688 92.933594 39.863281 92.933594 C 38.289062 92.933594 36.878906 92.351562 35.800781 91.441406 C 36.050781 91.273438 36.296875 91.109375 36.464844 90.941406 Z M 36.382812 173.5625 C 37.625 172.734375 38.371094 171.324219 38.371094 169.75 C 38.371094 169.335938 38.289062 168.921875 38.203125 168.507812 C 38.453125 167.84375 38.617188 167.183594 38.617188 166.4375 C 38.617188 165.195312 38.203125 164.035156 37.457031 163.121094 C 38.203125 162.789062 39.03125 162.625 39.945312 162.625 C 43.507812 162.625 46.410156 165.523438 46.410156 169.089844 C 46.410156 170 46.242188 170.910156 45.828125 171.738281 C 44.832031 173.976562 42.511719 175.636719 39.945312 175.636719 C 38.371094 175.636719 36.878906 175.054688 35.71875 174.058594 C 35.882812 173.894531 36.132812 173.730469 36.382812 173.5625 Z M 35.46875 214.417969 C 37.128906 213.753906 38.371094 212.015625 38.371094 210.109375 C 38.371094 209.695312 38.289062 209.28125 38.203125 208.867188 C 38.453125 208.203125 38.617188 207.539062 38.617188 206.792969 C 38.617188 205.882812 38.371094 204.96875 37.957031 204.222656 C 38.535156 204.058594 39.199219 203.894531 39.863281 203.894531 C 43.425781 203.894531 46.324219 206.792969 46.324219 210.355469 C 46.324219 211.269531 46.160156 212.179688 45.746094 213.007812 C 44.75 215.246094 42.429688 216.902344 39.863281 216.902344 C 37.871094 216.902344 36.132812 215.992188 34.890625 214.582031 C 35.136719 214.582031 35.304688 214.5 35.46875 214.417969 Z M 35.46875 214.417969 " fill-opacity="1" fill-rule="nonzero"/></g><path fill="#00547e" d="M 199.882812 126.410156 L 204.851562 129.726562 L 204.851562 143.980469 L 199.882812 148.953125 Z M 36.878906 262.648438 C 36.132812 262.648438 35.46875 262.5625 34.808594 262.480469 C 35.96875 266.210938 39.449219 268.945312 43.507812 268.945312 L 157.121094 268.945312 L 149.332031 262.648438 Z M 53.535156 59.703125 L 53.535156 44.207031 L 30.664062 44.207031 C 25.609375 44.207031 21.546875 48.265625 21.546875 53.320312 L 21.546875 78.347656 L 33.066406 78.347656 C 33.230469 78.347656 33.398438 78.347656 33.5625 78.347656 C 33.8125 78.347656 33.976562 78.429688 34.226562 78.429688 C 34.308594 78.347656 34.308594 78.347656 34.390625 78.265625 C 35.800781 76.855469 37.707031 76.027344 39.863281 76.027344 C 44.171875 76.027344 47.652344 79.507812 47.652344 83.816406 C 47.652344 83.898438 47.652344 83.898438 47.652344 83.980469 C 47.898438 84.726562 47.984375 85.472656 47.984375 86.300781 C 47.984375 90.777344 44.335938 94.421875 39.863281 94.421875 C 37.707031 94.421875 35.800781 93.59375 34.390625 92.269531 C 34.226562 92.101562 34.0625 91.9375 33.894531 91.773438 C 33.8125 91.773438 33.730469 91.773438 33.730469 91.773438 L 21.546875 91.773438 L 21.546875 120.445312 L 33.066406 120.445312 C 33.230469 120.445312 33.398438 120.445312 33.5625 120.445312 C 33.5625 120.445312 33.5625 120.445312 33.648438 120.445312 C 33.894531 120.113281 34.144531 119.863281 34.390625 119.53125 C 35.800781 118.125 37.707031 117.296875 39.863281 117.296875 C 44.171875 117.296875 47.652344 120.777344 47.652344 125.085938 C 47.652344 125.167969 47.652344 125.167969 47.652344 125.25 C 47.898438 125.996094 47.984375 126.742188 47.984375 127.570312 C 47.984375 132.046875 44.335938 135.691406 39.863281 135.691406 C 37.871094 135.691406 36.050781 134.945312 34.640625 133.785156 C 34.558594 133.785156 34.476562 133.785156 34.390625 133.785156 C 34.144531 133.785156 33.976562 133.867188 33.730469 133.867188 L 21.546875 133.867188 L 21.546875 160.800781 L 33.066406 160.800781 C 33.230469 160.800781 33.398438 160.800781 33.5625 160.800781 C 33.8125 160.800781 34.0625 160.882812 34.390625 160.96875 C 35.800781 159.558594 37.707031 158.730469 39.863281 158.730469 C 44.171875 158.730469 47.652344 162.210938 47.652344 166.519531 C 47.652344 166.601562 47.652344 166.601562 47.652344 166.683594 C 47.898438 167.429688 47.984375 168.175781 47.984375 169.003906 C 47.984375 173.480469 44.335938 177.125 39.863281 177.125 C 37.707031 177.125 35.800781 176.296875 34.390625 174.972656 C 34.144531 174.804688 33.976562 174.558594 33.730469 174.308594 C 33.730469 174.308594 33.730469 174.308594 33.648438 174.308594 L 21.546875 174.308594 L 21.546875 201.242188 L 33.066406 201.242188 C 33.230469 201.242188 33.398438 201.242188 33.5625 201.242188 C 33.8125 201.242188 34.144531 201.324219 34.390625 201.40625 C 34.640625 201.488281 34.972656 201.574219 35.222656 201.65625 C 36.546875 200.660156 38.121094 200.082031 39.945312 200.082031 C 44.253906 200.082031 47.734375 203.5625 47.734375 207.871094 C 47.734375 207.953125 47.734375 207.953125 47.734375 208.035156 C 47.984375 208.78125 48.066406 209.527344 48.066406 210.355469 C 48.066406 214.832031 44.417969 218.476562 39.945312 218.476562 C 37.789062 218.476562 35.882812 217.648438 34.476562 216.324219 C 34.144531 216.074219 33.894531 215.742188 33.648438 215.410156 C 33.480469 215.164062 33.230469 214.914062 33.066406 214.667969 L 21.546875 214.667969 L 21.546875 244.25 C 21.546875 247.648438 23.371094 250.546875 26.105469 252.121094 C 26.355469 252.289062 26.6875 252.453125 26.933594 252.535156 C 27.183594 252.703125 27.515625 252.785156 27.761719 252.867188 C 28.675781 253.199219 29.667969 253.367188 30.664062 253.367188 L 53.535156 253.367188 Z M 6.714844 87.710938 L 32.984375 87.710938 C 33.148438 87.710938 33.316406 87.710938 33.398438 87.628906 C 33.648438 87.628906 33.976562 87.546875 34.226562 87.460938 C 35.71875 86.964844 36.796875 85.558594 36.796875 83.898438 C 36.796875 83.898438 36.796875 83.898438 36.796875 83.816406 C 36.796875 82.820312 36.382812 81.910156 35.71875 81.246094 C 35.550781 81.082031 35.304688 80.832031 35.054688 80.667969 C 34.808594 80.5 34.558594 80.335938 34.226562 80.253906 C 34.226562 80.253906 34.144531 80.253906 34.144531 80.253906 C 33.894531 80.171875 33.5625 80.085938 33.316406 80.085938 C 33.148438 80.085938 32.984375 80.003906 32.816406 80.003906 L 6.714844 80.003906 C 4.640625 80.003906 2.902344 81.660156 2.902344 83.816406 C 2.902344 83.816406 2.902344 83.816406 2.902344 83.898438 C 2.902344 85.972656 4.640625 87.710938 6.714844 87.710938 Z M 6.714844 129.890625 L 33.066406 129.890625 C 33.230469 129.890625 33.398438 129.890625 33.5625 129.808594 C 33.648438 129.808594 33.730469 129.808594 33.730469 129.808594 C 33.976562 129.808594 34.144531 129.726562 34.390625 129.644531 C 35.882812 129.144531 36.960938 127.738281 36.960938 126.078125 C 36.960938 126.078125 36.960938 126.078125 36.960938 125.996094 C 36.960938 124.753906 36.382812 123.675781 35.46875 123.011719 C 35.222656 122.847656 34.972656 122.683594 34.722656 122.597656 C 34.640625 122.515625 34.558594 122.515625 34.390625 122.515625 C 34.226562 122.433594 34.0625 122.351562 33.8125 122.351562 C 33.730469 122.351562 33.648438 122.351562 33.5625 122.351562 C 33.398438 122.351562 33.230469 122.265625 33.066406 122.265625 L 6.714844 122.265625 C 4.640625 122.265625 2.902344 123.925781 2.902344 126.078125 C 2.902344 126.078125 2.902344 126.078125 2.902344 126.164062 C 2.902344 128.152344 4.640625 129.890625 6.714844 129.890625 Z M 6.714844 170.25 L 33.066406 170.25 C 33.230469 170.25 33.316406 170.25 33.480469 170.164062 C 33.480469 170.164062 33.480469 170.164062 33.5625 170.164062 C 33.8125 170.164062 34.144531 170.082031 34.390625 170 C 35.882812 169.503906 36.960938 168.09375 36.960938 166.4375 C 36.960938 166.4375 36.960938 166.4375 36.960938 166.355469 C 36.960938 165.441406 36.546875 164.53125 35.96875 163.867188 C 35.800781 163.617188 35.550781 163.453125 35.386719 163.289062 C 35.136719 163.121094 34.890625 162.957031 34.640625 162.875 C 34.558594 162.875 34.476562 162.875 34.476562 162.789062 C 34.226562 162.707031 33.894531 162.625 33.648438 162.625 C 33.480469 162.625 33.398438 162.625 33.230469 162.625 C 33.230469 162.625 33.148438 162.625 33.148438 162.625 L 6.714844 162.625 C 4.640625 162.625 2.902344 164.28125 2.902344 166.4375 C 2.902344 166.4375 2.902344 166.4375 2.902344 166.519531 C 2.902344 168.589844 4.640625 170.25 6.714844 170.25 Z M 26.023438 210.6875 L 33.066406 210.6875 C 33.148438 210.6875 33.316406 210.6875 33.398438 210.6875 C 33.480469 210.6875 33.480469 210.6875 33.5625 210.6875 C 33.8125 210.6875 34.144531 210.605469 34.390625 210.523438 C 35.882812 210.027344 36.960938 208.617188 36.960938 206.960938 C 36.960938 206.960938 36.960938 206.960938 36.960938 206.875 C 36.960938 206.214844 36.796875 205.632812 36.464844 205.054688 C 36.296875 204.804688 36.132812 204.554688 35.96875 204.390625 C 35.800781 204.140625 35.550781 203.976562 35.304688 203.808594 C 35.054688 203.644531 34.722656 203.480469 34.390625 203.3125 C 34.226562 203.230469 33.976562 203.148438 33.8125 203.148438 C 33.730469 203.148438 33.648438 203.148438 33.5625 203.148438 C 33.398438 203.148438 33.230469 203.0625 33.066406 203.0625 L 6.714844 203.0625 C 4.640625 203.0625 2.902344 204.722656 2.902344 206.875 C 2.902344 206.875 2.902344 206.875 2.902344 206.960938 C 2.902344 209.113281 4.640625 210.769531 6.714844 210.769531 L 26.023438 210.769531 Z M 70.191406 112.820312 L 85.9375 112.820312 C 88.007812 112.820312 89.664062 111.164062 89.664062 109.089844 L 89.664062 95.75 C 87.34375 97.738281 85.4375 99.894531 83.863281 101.714844 C 82.621094 103.207031 81.378906 104.78125 80.21875 106.355469 C 79.636719 107.101562 79.140625 107.765625 78.5625 108.511719 C 78.148438 109.175781 77.402344 109.589844 76.574219 109.589844 C 76.15625 109.589844 75.742188 109.503906 75.328125 109.257812 C 74.996094 109.007812 74.667969 108.761719 74.5 108.34375 C 73.921875 107.351562 73.257812 106.441406 72.511719 105.445312 C 71.847656 104.78125 71.101562 104.121094 70.355469 103.539062 C 70.191406 103.375 69.613281 102.792969 69.695312 102.296875 C 69.859375 101.382812 70.027344 100.554688 70.273438 99.644531 L 70.355469 99.394531 C 70.441406 99.0625 70.605469 98.816406 70.855469 98.648438 C 71.101562 98.484375 71.433594 98.402344 71.683594 98.484375 L 71.765625 98.484375 C 74.085938 99.230469 75.164062 101.21875 76.242188 103.125 L 76.40625 103.375 C 76.488281 103.539062 76.65625 103.539062 76.820312 103.457031 C 76.820312 103.457031 76.902344 103.457031 76.902344 103.375 L 77.648438 102.628906 C 78.726562 101.550781 79.722656 100.554688 80.714844 99.5625 C 83.285156 97.074219 86.183594 94.421875 89.664062 92.351562 L 89.664062 91.9375 C 89.664062 89.867188 88.007812 88.207031 85.9375 88.207031 L 70.191406 88.207031 C 68.121094 88.207031 66.460938 89.867188 66.460938 91.9375 L 66.460938 108.925781 C 66.546875 111.164062 68.203125 112.820312 70.191406 112.820312 Z M 70.191406 149.28125 L 85.9375 149.28125 C 88.007812 149.28125 89.664062 147.625 89.664062 145.554688 L 89.664062 131.132812 C 87.34375 133.125 85.4375 135.277344 83.863281 137.101562 C 82.621094 138.59375 81.378906 140.167969 80.21875 141.742188 C 79.636719 142.488281 79.140625 143.152344 78.5625 143.894531 C 78.148438 144.558594 77.402344 144.972656 76.574219 144.972656 C 76.15625 144.972656 75.742188 144.890625 75.328125 144.640625 C 74.996094 144.394531 74.667969 144.144531 74.5 143.730469 C 73.921875 142.734375 73.257812 141.824219 72.511719 140.832031 C 71.847656 140.167969 71.101562 139.503906 70.355469 138.925781 C 70.191406 138.757812 69.613281 138.179688 69.695312 137.679688 C 69.859375 136.769531 70.027344 135.941406 70.273438 135.03125 L 70.355469 134.78125 C 70.523438 134.199219 71.101562 133.785156 71.765625 133.953125 L 71.847656 133.953125 C 74.167969 134.699219 75.246094 136.6875 76.324219 138.59375 L 76.488281 138.839844 C 76.574219 139.007812 76.738281 139.007812 76.902344 138.925781 C 76.902344 138.925781 76.988281 138.925781 76.988281 138.839844 L 77.734375 138.09375 C 78.808594 137.019531 79.804688 136.023438 80.796875 135.03125 C 83.285156 132.542969 86.183594 129.890625 89.664062 127.902344 C 89.335938 126.164062 87.84375 124.917969 86.019531 124.917969 L 70.273438 124.917969 C 68.203125 124.917969 66.546875 126.578125 66.546875 128.648438 L 66.546875 145.636719 C 66.546875 147.625 68.203125 149.28125 70.191406 149.28125 Z M 70.191406 188.230469 L 85.9375 188.230469 C 88.007812 188.230469 89.664062 186.574219 89.664062 184.5 L 89.664062 167.515625 C 89.664062 165.441406 88.007812 163.785156 85.9375 163.785156 L 70.191406 163.785156 C 68.121094 163.785156 66.460938 165.441406 66.460938 167.515625 L 66.460938 184.585938 C 66.546875 186.574219 68.203125 188.230469 70.191406 188.230469 Z M 70.191406 227.59375 L 85.9375 227.59375 C 88.007812 227.59375 89.664062 225.9375 89.664062 223.863281 L 89.664062 206.875 C 89.664062 204.804688 88.007812 203.148438 85.9375 203.148438 L 70.191406 203.148438 C 68.121094 203.148438 66.460938 204.804688 66.460938 206.875 L 66.460938 223.863281 C 66.546875 225.9375 68.203125 227.59375 70.191406 227.59375 Z M 66.710938 59.703125 C 67.125 61.027344 68.367188 62.023438 69.859375 62.023438 L 145.769531 62.023438 C 147.257812 62.023438 148.503906 61.027344 148.917969 59.703125 C 149 59.453125 149.082031 59.121094 149.082031 58.871094 C 149.082031 58.789062 149.082031 58.789062 149.082031 58.707031 C 149.082031 58.457031 149.082031 58.210938 149 58.042969 C 148.667969 56.550781 147.34375 55.476562 145.769531 55.476562 L 69.859375 55.476562 C 68.285156 55.476562 66.960938 56.550781 66.628906 58.042969 C 66.546875 58.292969 66.546875 58.542969 66.546875 58.707031 C 66.546875 58.789062 66.546875 58.789062 66.546875 58.871094 C 66.546875 59.121094 66.628906 59.453125 66.710938 59.703125 Z M 96.957031 95.582031 L 96.957031 97.242188 L 125.546875 97.242188 L 125.546875 95.582031 Z M 125.546875 176.878906 L 96.957031 176.878906 L 96.957031 178.535156 L 125.546875 178.535156 Z M 96.957031 184.75 L 125.546875 184.75 L 125.546875 183.09375 L 96.957031 183.09375 Z M 139.054688 139.753906 L 96.957031 139.753906 L 96.957031 141.410156 L 139.054688 141.410156 Z M 138.808594 209.28125 L 96.875 209.28125 L 96.875 210.9375 L 137.148438 210.9375 Z M 96.957031 216.65625 L 124.304688 216.65625 L 124.304688 214.996094 L 96.957031 214.996094 Z M 158.113281 14.125 C 158.113281 13.542969 158.113281 12.882812 158.113281 12.300781 L 156.871094 12.300781 C 156.707031 12.300781 156.457031 12.300781 156.292969 12.21875 C 156.953125 12.964844 157.535156 13.625 158.113281 14.125 Z M 196.152344 39.8125 C 194.992188 40.972656 193.75 42.050781 192.421875 43.128906 C 192.089844 43.375 191.761719 43.707031 191.429688 44.039062 C 191.59375 44.121094 191.675781 44.207031 191.84375 44.371094 C 193.085938 45.28125 194.246094 46.277344 195.324219 47.269531 C 196.566406 46.195312 197.726562 45.199219 198.886719 44.039062 C 203.609375 39.398438 206.675781 34.59375 208.167969 29.289062 C 208.996094 26.386719 208.996094 23.488281 208.996094 20.421875 C 208.996094 19.757812 208.996094 19.097656 208.996094 18.515625 C 208.996094 17.023438 208.996094 16.195312 209.660156 15.617188 L 209.90625 15.449219 L 211.8125 15.449219 C 212.3125 15.449219 212.808594 15.285156 213.304688 15.117188 C 213.386719 15.117188 213.386719 15.035156 213.386719 15.035156 C 214.464844 14.457031 215.128906 13.296875 215.128906 12.136719 L 215.128906 9.648438 C 215.128906 8.738281 213.71875 6.914062 212.0625 5.503906 C 212.0625 5.589844 212.0625 5.589844 212.0625 5.671875 L 212.0625 8.15625 C 212.0625 10.476562 210.15625 12.300781 207.917969 12.300781 L 206.757812 12.300781 C 206.757812 12.550781 206.757812 12.796875 206.757812 13.046875 C 206.757812 13.710938 206.757812 14.371094 206.757812 15.035156 C 206.757812 18.101562 206.757812 21.25 205.929688 24.398438 C 204.273438 29.867188 201.125 34.925781 196.152344 39.8125 Z M 160.765625 91.441406 L 168.886719 91.441406 C 168.804688 90.28125 168.722656 89.203125 168.722656 88.042969 C 168.722656 87.628906 168.722656 87.296875 168.722656 86.882812 L 157.371094 86.882812 L 157.371094 86.964844 L 157.285156 86.882812 L 156.871094 86.882812 C 156.375 86.882812 155.960938 86.800781 155.546875 86.632812 C 156.953125 88.871094 159.605469 91.441406 160.765625 91.441406 Z M 180.160156 51.496094 C 179.992188 51.582031 179.742188 51.664062 179.578125 51.746094 C 177.175781 52.824219 174.9375 54.230469 172.867188 55.808594 C 172.039062 56.46875 171.125 57.214844 170.378906 57.960938 C 170.378906 57.960938 170.296875 58.042969 170.296875 58.042969 C 170.046875 58.292969 169.71875 58.625 169.46875 58.871094 C 169.21875 59.121094 168.972656 59.453125 168.722656 59.703125 C 168.058594 60.449219 167.398438 61.277344 166.898438 62.105469 C 166.484375 62.769531 166.152344 63.347656 165.820312 64.09375 C 165.078125 65.667969 164.660156 67.324219 164.660156 69.230469 C 164.660156 69.644531 164.660156 70.058594 164.660156 70.390625 C 164.828125 71.964844 165.078125 72.378906 166.734375 72.378906 C 168.722656 72.378906 170.710938 72.378906 172.78125 72.378906 C 175.519531 67.242188 179.578125 62.851562 184.46875 59.703125 C 184.882812 59.453125 185.378906 59.121094 185.792969 58.871094 C 186.289062 58.625 186.789062 58.292969 187.285156 58.042969 C 188.859375 57.214844 190.433594 56.550781 192.175781 56.054688 C 192.175781 56.054688 192.257812 56.054688 192.257812 56.054688 C 192.257812 56.054688 192.175781 55.972656 192.175781 55.972656 C 190.101562 54.316406 187.78125 52.988281 185.378906 51.828125 C 185.214844 51.746094 185.046875 51.664062 184.882812 51.582031 C 184.550781 51.496094 184.300781 51.25 184.136719 51 C 183.96875 50.75 183.886719 50.503906 183.96875 50.171875 C 183.96875 48.265625 183.96875 46.359375 183.96875 44.371094 C 183.96875 44.121094 183.96875 43.789062 183.96875 43.542969 C 183.96875 43.292969 183.96875 42.960938 183.96875 42.714844 C 183.96875 41.554688 183.96875 40.308594 183.96875 39.148438 C 183.886719 38.570312 184.21875 38.074219 184.714844 37.824219 C 188.527344 35.503906 191.925781 32.519531 194.742188 29.039062 C 197.644531 25.394531 199.796875 21.5 200.296875 16.777344 C 200.460938 15.117188 199.964844 14.621094 198.304688 14.621094 C 187.78125 14.621094 177.339844 14.621094 166.816406 14.621094 C 165.078125 14.621094 164.414062 15.203125 164.828125 16.941406 C 165.242188 19.097656 165.820312 21.167969 166.652344 23.15625 C 169.632812 29.453125 174.359375 34.179688 180.242188 37.824219 C 180.820312 38.074219 181.152344 38.652344 181.152344 39.234375 C 181.152344 40.394531 181.152344 41.554688 181.152344 42.714844 C 181.152344 42.960938 181.152344 43.292969 181.152344 43.542969 C 181.152344 43.789062 181.152344 44.121094 181.152344 44.371094 C 181.152344 46.359375 181.152344 48.265625 181.152344 50.253906 C 181.152344 50.253906 181.152344 50.335938 181.152344 50.335938 C 181.152344 50.585938 181.070312 50.835938 180.988281 51.082031 C 180.65625 51.167969 180.488281 51.414062 180.160156 51.496094 Z M 202.449219 56.054688 C 208.832031 56.054688 214.796875 57.960938 219.769531 61.191406 C 228.554688 66.910156 234.4375 76.773438 234.4375 88.042969 C 234.4375 104.285156 222.253906 117.710938 206.59375 119.78125 C 206.34375 119.78125 206.011719 119.863281 205.765625 119.863281 C 205.515625 119.863281 205.183594 119.945312 204.9375 119.945312 C 204.105469 120.03125 203.277344 120.03125 202.449219 120.03125 C 201.621094 120.03125 200.792969 119.945312 199.964844 119.945312 C 199.714844 119.945312 199.382812 119.945312 199.136719 119.863281 C 198.886719 119.863281 198.554688 119.78125 198.304688 119.78125 C 196.730469 119.617188 195.242188 119.285156 193.75 118.871094 C 193.5 118.785156 193.167969 118.703125 192.921875 118.621094 C 192.671875 118.539062 192.339844 118.457031 192.089844 118.371094 C 187.535156 116.796875 183.390625 114.230469 179.992188 110.914062 C 177.839844 108.761719 176.015625 106.355469 174.523438 103.703125 C 172.699219 100.472656 171.457031 96.910156 170.878906 93.179688 C 170.878906 92.933594 170.792969 92.683594 170.792969 92.433594 C 170.792969 92.433594 170.792969 92.351562 170.792969 92.351562 C 170.792969 92.101562 170.710938 91.773438 170.710938 91.523438 C 170.628906 90.363281 170.546875 89.285156 170.546875 88.125 C 170.546875 87.710938 170.546875 87.378906 170.546875 86.964844 C 170.546875 86.71875 170.546875 86.386719 170.546875 86.136719 C 170.546875 85.886719 170.546875 85.558594 170.628906 85.308594 C 170.628906 85.058594 170.710938 84.726562 170.710938 84.480469 C 171.042969 81.578125 171.789062 78.761719 172.867188 76.109375 C 173.363281 74.867188 173.941406 73.625 174.605469 72.464844 C 177.671875 67.078125 182.230469 62.683594 187.699219 59.785156 C 188.28125 59.453125 188.859375 59.203125 189.441406 58.957031 C 190.101562 58.625 190.765625 58.375 191.429688 58.128906 C 191.675781 58.042969 191.925781 57.960938 192.175781 57.878906 C 192.421875 57.796875 192.753906 57.710938 193.003906 57.628906 C 193.25 57.546875 193.5 57.464844 193.832031 57.382812 C 194.910156 57.050781 196.070312 56.800781 197.230469 56.636719 C 197.476562 56.550781 197.808594 56.550781 198.058594 56.46875 C 198.304688 56.46875 198.636719 56.386719 198.886719 56.386719 C 199.382812 56.304688 199.796875 56.304688 200.296875 56.304688 C 200.378906 56.304688 200.542969 56.304688 200.625 56.304688 C 200.875 56.304688 201.125 56.304688 201.371094 56.304688 C 201.457031 56.304688 201.539062 56.304688 201.621094 56.304688 C 201.871094 56.304688 202.203125 56.304688 202.449219 56.304688 C 202.367188 56.054688 202.367188 56.054688 202.449219 56.054688 Z M 207.171875 62.933594 C 206.84375 62.851562 206.511719 62.769531 206.097656 62.769531 C 205.929688 62.769531 205.765625 62.683594 205.597656 62.683594 C 205.433594 62.683594 205.265625 62.601562 205.101562 62.601562 C 204.9375 62.601562 204.851562 62.601562 204.6875 62.601562 C 204.605469 62.601562 204.605469 62.601562 204.523438 62.601562 C 204.273438 62.601562 204.023438 62.519531 203.777344 62.519531 C 203.691406 62.519531 203.527344 62.519531 203.445312 62.519531 C 203.113281 62.519531 202.699219 62.519531 202.367188 62.519531 C 202.367188 62.519531 202.285156 62.519531 202.285156 62.519531 C 201.457031 62.519531 200.625 62.601562 199.882812 62.601562 C 199.632812 62.601562 199.300781 62.683594 199.050781 62.683594 C 198.886719 62.683594 198.636719 62.769531 198.472656 62.769531 C 198.390625 62.769531 198.304688 62.769531 198.222656 62.851562 C 196.648438 63.097656 195.15625 63.511719 193.664062 64.011719 C 193.417969 64.09375 193.085938 64.257812 192.835938 64.34375 C 192.589844 64.425781 192.257812 64.589844 192.007812 64.675781 C 188.113281 66.414062 184.714844 69.066406 182.148438 72.378906 C 181.234375 73.539062 180.488281 74.785156 179.742188 76.027344 C 178.417969 78.597656 177.421875 81.414062 177.007812 84.398438 C 177.007812 84.644531 176.925781 84.976562 176.925781 85.226562 C 176.925781 85.472656 176.84375 85.804688 176.84375 86.054688 C 176.84375 86.300781 176.761719 86.632812 176.761719 86.882812 C 176.761719 87.296875 176.761719 87.628906 176.761719 88.042969 C 176.761719 89.203125 176.84375 90.363281 177.007812 91.441406 C 177.007812 91.6875 177.09375 92.019531 177.09375 92.269531 C 177.175781 92.519531 177.175781 92.847656 177.257812 93.097656 C 178.914062 101.300781 184.46875 108.097656 191.925781 111.410156 C 192.175781 111.496094 192.503906 111.660156 192.753906 111.742188 C 193.003906 111.824219 193.335938 111.992188 193.582031 112.074219 C 195.074219 112.570312 196.566406 112.984375 198.140625 113.234375 C 198.390625 113.316406 198.722656 113.316406 198.96875 113.316406 C 199.21875 113.316406 199.550781 113.402344 199.796875 113.402344 C 200.625 113.484375 201.457031 113.484375 202.285156 113.484375 C 203.113281 113.484375 203.941406 113.402344 204.769531 113.402344 C 205.019531 113.402344 205.351562 113.316406 205.597656 113.316406 C 205.847656 113.316406 206.179688 113.234375 206.425781 113.234375 C 218.527344 111.246094 227.808594 100.722656 227.808594 88.042969 C 227.972656 75.53125 219.023438 65.171875 207.171875 62.933594 Z M 203.609375 106.191406 C 203.609375 105.527344 203.03125 104.949219 202.285156 104.949219 C 202.285156 104.949219 202.285156 104.949219 202.203125 104.949219 C 201.539062 104.949219 200.957031 105.527344 200.957031 106.191406 C 200.875 107.183594 200.875 108.261719 200.957031 109.257812 C 200.957031 109.257812 200.957031 109.339844 200.957031 109.339844 C 201.042969 110.003906 201.539062 110.5 202.203125 110.417969 C 202.203125 110.417969 202.203125 110.417969 202.285156 110.417969 C 202.945312 110.417969 203.445312 109.835938 203.445312 109.175781 C 203.445312 108.675781 203.445312 108.179688 203.445312 107.683594 C 203.445312 107.269531 203.445312 106.769531 203.445312 106.355469 C 203.691406 106.355469 203.691406 106.355469 203.609375 106.191406 C 203.609375 106.273438 203.609375 106.273438 203.609375 106.191406 Z M 201.125 70.058594 C 201.207031 70.722656 201.785156 71.136719 202.367188 71.054688 C 202.367188 71.054688 202.367188 71.054688 202.449219 71.054688 C 203.113281 71.054688 203.609375 70.476562 203.609375 69.8125 C 203.691406 69.316406 203.609375 68.816406 203.609375 68.320312 C 203.609375 67.824219 203.609375 67.242188 203.609375 66.746094 C 203.609375 66.082031 203.03125 65.585938 202.449219 65.585938 C 202.449219 65.585938 202.367188 65.585938 202.367188 65.585938 C 201.703125 65.585938 201.207031 66.082031 201.207031 66.746094 C 201.125 67.824219 201.125 68.816406 201.207031 69.894531 C 201.125 69.894531 201.125 69.976562 201.125 70.058594 Z M 193.75 102.710938 C 193.5 102.628906 193.335938 102.628906 193.003906 102.628906 C 193.003906 102.628906 192.921875 102.628906 192.921875 102.710938 C 192.753906 102.792969 192.503906 102.875 192.339844 103.125 C 192.257812 103.289062 192.175781 103.457031 192.089844 103.539062 C 191.59375 104.367188 191.097656 105.195312 190.683594 106.023438 C 190.433594 106.605469 190.683594 107.269531 191.261719 107.515625 C 191.511719 107.683594 191.84375 107.765625 192.089844 107.683594 C 192.339844 107.601562 192.589844 107.515625 192.753906 107.269531 C 192.835938 107.183594 192.835938 107.101562 192.921875 107.019531 C 193.25 106.605469 193.5 106.191406 193.75 105.695312 C 193.996094 105.195312 194.246094 104.78125 194.496094 104.285156 C 194.742188 103.621094 194.410156 102.960938 193.75 102.710938 Z M 193.75 70.390625 C 193.5 69.976562 193.25 69.480469 192.921875 69.066406 C 192.921875 69.066406 192.921875 68.984375 192.835938 68.984375 C 192.671875 68.734375 192.257812 68.570312 192.089844 68.484375 C 190.929688 68.484375 190.351562 69.398438 190.765625 70.308594 C 191.097656 71.054688 191.511719 71.71875 191.925781 72.378906 C 192.007812 72.464844 192.089844 72.628906 192.089844 72.710938 C 192.175781 72.796875 192.175781 72.878906 192.257812 72.960938 C 192.257812 72.960938 192.257812 72.960938 192.257812 73.042969 C 192.421875 73.292969 192.671875 73.457031 192.921875 73.539062 C 193.167969 73.625 193.5 73.625 193.75 73.457031 C 193.832031 73.457031 193.832031 73.375 193.914062 73.375 C 193.996094 73.375 193.996094 73.375 193.996094 73.292969 C 194.328125 73.125 194.496094 72.796875 194.578125 72.378906 C 194.578125 72.132812 194.578125 71.882812 194.410156 71.71875 C 194.246094 71.21875 193.996094 70.804688 193.75 70.390625 Z M 184.714844 76.359375 C 184.054688 76.027344 183.390625 76.191406 183.058594 76.773438 C 183.058594 76.773438 182.976562 76.855469 182.976562 76.855469 C 182.644531 77.351562 182.808594 78.097656 183.308594 78.429688 C 184.21875 79.09375 185.128906 79.589844 186.207031 80.085938 C 187.035156 80.417969 187.863281 79.757812 187.863281 78.597656 C 187.699219 78.265625 187.449219 78.015625 187.203125 77.765625 C 186.457031 77.269531 185.628906 76.773438 184.714844 76.359375 Z M 218.941406 80.003906 C 219.769531 79.589844 220.515625 79.175781 221.261719 78.679688 C 221.507812 78.429688 221.757812 78.179688 222.007812 77.851562 C 222.007812 76.605469 221.011719 75.945312 220.101562 76.441406 C 219.273438 76.855469 218.445312 77.351562 217.699219 77.851562 C 217.699219 77.851562 217.613281 77.851562 217.613281 77.933594 C 217.035156 78.347656 216.867188 79.09375 217.199219 79.671875 C 217.53125 80.171875 218.359375 80.335938 218.941406 80.003906 Z M 186.207031 96 C 185.214844 96.414062 184.21875 96.992188 183.390625 97.65625 C 183.058594 97.988281 182.894531 98.566406 183.058594 98.980469 C 183.140625 99.394531 183.722656 99.644531 184.21875 100.140625 C 185.460938 99.3125 186.703125 98.566406 187.78125 97.738281 C 188.03125 97.574219 187.949219 96.660156 187.699219 96.328125 C 187.203125 96.082031 186.703125 95.914062 186.207031 96 Z M 217.53125 98.234375 C 218.359375 98.734375 219.1875 99.230469 220.101562 99.726562 C 220.347656 99.808594 220.597656 99.894531 220.847656 99.976562 C 221.261719 99.726562 221.59375 99.394531 221.839844 99.0625 C 222.089844 98.484375 221.925781 97.820312 221.34375 97.574219 C 220.515625 97.074219 219.6875 96.578125 218.773438 96.082031 C 218.773438 96.082031 218.691406 96.082031 218.691406 96.082031 C 218.113281 95.75 217.367188 96 217.117188 96.578125 C 217.117188 96.578125 217.035156 96.660156 217.035156 96.660156 C 216.785156 97.160156 216.953125 97.902344 217.53125 98.234375 Z M 210.984375 73.292969 C 211.484375 73.457031 212.0625 73.292969 212.476562 72.960938 C 213.140625 72.050781 213.71875 71.136719 214.132812 70.144531 C 214.21875 69.976562 214.21875 69.730469 214.21875 69.5625 C 214.132812 68.898438 213.472656 68.402344 212.808594 68.402344 C 212.644531 68.484375 212.3125 68.484375 212.226562 68.734375 C 211.566406 69.730469 210.902344 70.804688 210.40625 71.882812 C 210.40625 71.882812 210.40625 71.964844 210.40625 71.964844 C 210.40625 71.964844 210.40625 72.050781 210.40625 72.050781 C 210.324219 72.378906 210.40625 72.628906 210.570312 72.878906 C 210.570312 73.125 210.738281 73.292969 210.984375 73.292969 Z M 212.644531 103.207031 C 212.3125 102.628906 211.484375 102.378906 210.902344 102.710938 C 210.324219 103.125 210.074219 103.871094 210.488281 104.535156 C 210.902344 105.363281 211.398438 106.109375 211.898438 106.855469 C 212.144531 107.101562 212.394531 107.351562 212.726562 107.601562 C 213.96875 107.601562 214.546875 106.6875 214.132812 105.777344 C 213.71875 104.863281 213.222656 104.035156 212.644531 103.207031 Z M 184.382812 89.285156 C 184.964844 89.285156 185.460938 88.707031 185.460938 88.125 C 185.460938 88.125 185.460938 88.042969 185.460938 88.042969 C 185.460938 87.546875 185.128906 87.046875 184.632812 86.882812 C 184.550781 86.882812 184.46875 86.882812 184.382812 86.882812 C 183.308594 86.800781 182.148438 86.800781 181.070312 86.882812 C 181.070312 86.882812 180.988281 86.882812 180.988281 86.882812 C 180.902344 86.882812 180.820312 86.882812 180.738281 86.964844 C 180.242188 87.132812 179.828125 87.628906 179.910156 88.207031 C 179.910156 88.871094 180.40625 89.367188 181.070312 89.453125 C 181.566406 89.535156 182.148438 89.453125 182.644531 89.453125 C 183.222656 89.285156 183.804688 89.285156 184.382812 89.285156 Z M 220.515625 86.800781 C 220.515625 86.800781 220.433594 86.800781 220.515625 86.800781 C 219.851562 86.882812 219.355469 87.460938 219.4375 88.042969 C 219.4375 88.042969 219.4375 88.042969 219.4375 88.125 C 219.4375 88.707031 219.851562 89.285156 220.515625 89.285156 C 221.59375 89.367188 222.753906 89.367188 223.828125 89.285156 C 223.828125 89.285156 223.914062 89.285156 223.914062 89.285156 C 224.574219 89.203125 224.988281 88.621094 224.90625 88.042969 C 224.90625 87.378906 224.410156 86.882812 223.746094 86.800781 C 223.25 86.71875 222.667969 86.800781 222.171875 86.800781 C 221.59375 86.800781 221.011719 86.800781 220.515625 86.800781 Z M 204.769531 86.882812 C 204.6875 86.550781 204.4375 86.300781 204.191406 86.054688 C 203.941406 85.804688 203.691406 85.640625 203.445312 85.558594 C 203.195312 85.472656 202.945312 85.390625 202.617188 85.308594 C 202.53125 85.308594 202.449219 85.308594 202.367188 85.308594 C 202.285156 85.308594 202.117188 85.308594 202.035156 85.308594 C 201.785156 85.308594 201.457031 85.472656 201.207031 85.558594 C 200.957031 85.722656 200.710938 85.804688 200.542969 86.054688 C 200.542969 86.054688 200.460938 86.136719 200.460938 86.136719 C 200.296875 86.386719 200.128906 86.632812 199.964844 86.882812 C 199.882812 87.132812 199.796875 87.460938 199.796875 87.792969 C 199.796875 89.203125 200.957031 90.28125 202.285156 90.28125 C 202.53125 90.28125 202.78125 90.199219 203.03125 90.113281 C 203.277344 90.03125 203.527344 89.867188 203.777344 89.699219 C 204.023438 89.535156 204.191406 89.367188 204.355469 89.121094 C 204.4375 89.039062 204.523438 88.871094 204.523438 88.707031 C 204.605469 88.457031 204.6875 88.207031 204.6875 87.878906 C 204.6875 87.792969 204.6875 87.792969 204.6875 87.710938 C 204.6875 87.460938 204.605469 87.214844 204.605469 87.046875 C 204.769531 86.964844 204.769531 86.882812 204.769531 86.882812 Z M 219.4375 133.953125 C 218.859375 133.371094 217.945312 133.371094 217.449219 133.953125 L 206.59375 144.640625 L 205.765625 145.472656 L 199.136719 152.101562 L 198.304688 152.929688 L 193.75 157.402344 L 192.921875 158.234375 L 192.089844 159.0625 L 133.335938 217.152344 C 133.007812 217.484375 132.839844 217.980469 132.921875 218.394531 L 146.429688 231.902344 C 146.929688 232.070312 147.507812 231.984375 147.839844 231.570312 L 191.179688 188.8125 C 191.179688 188.644531 191.179688 188.5625 191.179688 188.398438 C 190.929688 188.3125 190.765625 188.148438 190.601562 187.980469 C 189.355469 186.738281 190.019531 183.921875 192.089844 180.191406 C 192.339844 179.695312 192.589844 179.28125 192.921875 178.785156 C 193.167969 178.371094 193.417969 177.871094 193.75 177.457031 C 194.992188 175.550781 196.484375 173.480469 198.304688 171.324219 C 198.554688 170.996094 198.886719 170.664062 199.136719 170.332031 C 199.382812 170 199.714844 169.667969 199.964844 169.335938 C 201.457031 167.597656 203.195312 165.773438 204.9375 163.949219 C 204.9375 163.949219 205.019531 163.867188 205.019531 163.867188 C 205.265625 163.617188 205.515625 163.371094 205.765625 163.203125 C 206.011719 162.957031 206.34375 162.625 206.59375 162.375 C 206.675781 162.292969 206.757812 162.210938 206.757812 162.210938 C 216.867188 152.597656 226.648438 146.960938 229.214844 149.449219 C 229.382812 149.613281 229.464844 149.78125 229.628906 150.027344 C 229.960938 150.027344 230.210938 150.113281 230.460938 150.113281 L 232.035156 148.535156 C 232.613281 147.957031 232.613281 147.046875 232.035156 146.464844 Z M 240.238281 129.476562 C 238.914062 126.90625 235.929688 125.085938 234.355469 125.332031 C 233.609375 125.417969 232.945312 125.746094 232.367188 126.164062 C 229.960938 128.484375 227.476562 130.96875 225.15625 133.289062 L 223.332031 135.113281 L 230.707031 142.570312 L 232.863281 140.414062 C 235.101562 138.261719 237.171875 136.1875 239.328125 134.035156 C 240.734375 132.957031 241.066406 130.96875 240.238281 129.476562 Z M 139.96875 235.050781 L 134.828125 229.832031 L 129.609375 224.527344 L 125.546875 239.03125 L 125.464844 239.195312 Z M 230.625 151.933594 C 230.460938 151.769531 230.292969 151.6875 230.046875 151.601562 C 229.960938 151.601562 229.960938 151.601562 229.878906 151.601562 C 229.714844 151.601562 229.628906 151.601562 229.464844 151.601562 C 229.300781 151.601562 229.132812 151.601562 228.886719 151.601562 C 227.558594 151.769531 225.488281 152.515625 222.503906 154.253906 C 218.027344 156.90625 212.726562 161.214844 207.585938 166.355469 C 207.339844 166.601562 207.007812 166.933594 206.757812 167.183594 C 206.675781 167.265625 206.59375 167.347656 206.59375 167.347656 C 206.34375 167.597656 206.011719 167.929688 205.765625 168.175781 C 205.515625 168.507812 205.183594 168.757812 204.9375 169.089844 C 203.113281 171.078125 201.457031 172.984375 199.964844 174.890625 C 199.714844 175.21875 199.382812 175.636719 199.136719 175.964844 C 198.886719 176.378906 198.554688 176.710938 198.304688 177.125 C 197.3125 178.535156 196.316406 179.945312 195.570312 181.269531 C 194.824219 182.597656 194.246094 183.757812 193.832031 184.667969 C 193.417969 185.578125 193.167969 186.40625 193.003906 187.070312 C 193.003906 187.152344 193.003906 187.238281 193.003906 187.238281 C 192.921875 187.652344 192.921875 188.066406 192.921875 188.3125 C 192.921875 188.398438 192.921875 188.480469 192.921875 188.480469 C 192.921875 188.5625 192.921875 188.644531 193.003906 188.726562 C 193.085938 188.894531 193.085938 189.058594 193.167969 189.140625 C 193.167969 189.140625 193.25 189.226562 193.25 189.226562 C 193.417969 189.390625 193.582031 189.472656 193.832031 189.472656 C 194.742188 189.722656 196.316406 189.390625 198.390625 188.480469 C 198.636719 188.398438 198.96875 188.230469 199.21875 188.066406 C 199.464844 187.898438 199.796875 187.816406 200.046875 187.652344 C 201.539062 186.820312 203.195312 185.828125 205.019531 184.5 C 205.265625 184.335938 205.597656 184.085938 205.847656 183.921875 C 206.097656 183.757812 206.425781 183.507812 206.675781 183.339844 C 206.757812 183.257812 206.84375 183.257812 206.84375 183.175781 C 209.742188 180.9375 212.890625 178.203125 216.289062 174.890625 C 221.425781 169.75 225.734375 164.449219 228.386719 159.972656 C 231.121094 155.414062 231.453125 152.929688 230.789062 152.015625 C 230.707031 152.015625 230.707031 151.933594 230.625 151.933594 Z M 230.625 151.933594 " fill-opacity="1" fill-rule="nonzero"/><g clip-path="url(#7403a0d108)"><path fill="#000000" d="M 141.042969 71.054688 L 78.0625 71.054688 L 78.0625 69.398438 L 141.042969 69.398438 Z M 96.957031 104.285156 L 158.613281 104.285156 L 158.613281 102.628906 L 96.957031 102.628906 Z M 96.957031 171.90625 L 158.613281 171.90625 L 158.613281 170.25 L 96.957031 170.25 Z M 96.957031 132.707031 L 96.957031 134.367188 L 125.546875 134.367188 L 125.546875 132.707031 Z M 130.023438 134.367188 L 158.613281 134.367188 L 158.613281 132.707031 L 130.023438 132.707031 Z M 201.371094 72.296875 C 201.703125 71.964844 202.117188 71.882812 202.53125 71.882812 C 204.273438 72.050781 204.4375 74.785156 204.4375 75.695312 C 204.4375 75.777344 204.4375 75.859375 204.4375 75.945312 C 204.4375 76.855469 204.4375 77.765625 204.4375 78.679688 C 204.4375 78.925781 204.4375 79.175781 204.4375 79.425781 L 204.4375 79.921875 C 204.4375 80.335938 204.4375 80.75 204.4375 81.164062 C 204.4375 82.078125 204.4375 82.988281 204.4375 83.898438 C 204.4375 83.980469 204.4375 84.066406 204.4375 84.066406 C 204.523438 84.148438 204.6875 84.230469 204.769531 84.230469 C 204.851562 84.230469 204.851562 84.3125 204.851562 84.3125 C 205.101562 84.5625 205.351562 84.726562 205.597656 85.058594 C 205.597656 85.058594 205.683594 85.140625 205.683594 85.140625 C 205.847656 85.390625 206.011719 85.640625 206.097656 85.886719 C 206.261719 86.136719 206.34375 86.46875 206.425781 86.71875 C 206.511719 86.964844 206.511719 87.296875 206.511719 87.546875 C 206.675781 87.628906 206.84375 87.710938 207.007812 87.792969 C 208.996094 88.953125 210.902344 90.03125 212.644531 91.109375 C 212.972656 91.273438 213.222656 91.441406 213.554688 91.6875 C 213.804688 91.855469 213.96875 91.9375 214.21875 92.101562 C 214.300781 92.101562 214.300781 92.1875 214.382812 92.1875 C 215.707031 93.097656 216.453125 93.925781 216.621094 94.753906 C 216.703125 95.167969 216.621094 95.582031 216.371094 95.914062 C 216.039062 96.414062 215.542969 96.578125 214.964844 96.578125 C 213.886719 96.578125 212.644531 95.914062 212.0625 95.582031 C 211.234375 95.085938 210.324219 94.589844 209.578125 94.09375 C 209.328125 93.925781 209.164062 93.84375 208.914062 93.679688 L 208.417969 93.429688 C 208.085938 93.261719 207.835938 93.097656 207.503906 92.847656 C 207.421875 92.847656 207.421875 92.765625 207.339844 92.765625 C 207.089844 92.601562 206.84375 92.433594 206.511719 92.269531 C 206.34375 92.1875 206.179688 92.101562 206.011719 92.019531 C 205.929688 91.9375 205.765625 91.855469 205.683594 91.773438 C 205.433594 91.605469 205.183594 91.441406 204.9375 91.359375 C 204.9375 91.359375 204.851562 91.273438 204.851562 91.273438 C 204.769531 91.273438 204.769531 91.191406 204.769531 91.191406 C 204.6875 91.109375 204.605469 91.109375 204.523438 91.027344 C 204.4375 91.109375 204.355469 91.109375 204.191406 91.191406 C 203.609375 91.441406 203.03125 91.605469 202.367188 91.605469 C 201.703125 91.605469 201.125 91.441406 200.542969 91.191406 C 200.296875 91.109375 200.046875 90.941406 199.882812 90.777344 C 199.550781 90.527344 199.300781 90.28125 199.050781 89.949219 C 198.554688 89.285156 198.222656 88.375 198.222656 87.460938 C 198.222656 87.132812 198.222656 86.882812 198.304688 86.550781 C 198.390625 86.21875 198.472656 85.972656 198.636719 85.722656 C 198.722656 85.472656 198.886719 85.226562 199.050781 84.976562 C 199.050781 84.976562 199.136719 84.894531 199.136719 84.894531 C 199.382812 84.644531 199.632812 84.398438 199.882812 84.148438 C 199.882812 84.148438 199.964844 84.066406 199.964844 84.066406 C 200.046875 83.980469 200.128906 83.980469 200.210938 83.898438 C 200.210938 83.898438 200.210938 83.816406 200.210938 83.816406 C 200.128906 81 200.128906 78.265625 200.210938 75.777344 C 200.210938 75.695312 200.210938 75.613281 200.210938 75.53125 C 200.378906 74.039062 200.710938 72.878906 201.371094 72.296875 Z M 203.941406 89.699219 C 204.191406 89.535156 204.355469 89.367188 204.523438 89.121094 C 204.605469 89.039062 204.6875 88.871094 204.6875 88.707031 C 204.769531 88.457031 204.851562 88.207031 204.851562 87.878906 C 204.851562 87.792969 204.851562 87.792969 204.851562 87.710938 C 204.851562 87.460938 204.769531 87.214844 204.769531 87.046875 C 204.769531 86.964844 204.769531 86.882812 204.6875 86.882812 C 204.605469 86.550781 204.355469 86.300781 204.105469 86.054688 C 203.859375 85.804688 203.609375 85.640625 203.363281 85.558594 C 203.113281 85.472656 202.863281 85.390625 202.53125 85.308594 C 202.449219 85.308594 202.367188 85.308594 202.285156 85.308594 C 202.203125 85.308594 202.035156 85.308594 201.953125 85.308594 C 201.703125 85.308594 201.371094 85.472656 201.125 85.558594 C 200.875 85.722656 200.625 85.804688 200.460938 86.054688 C 200.460938 86.054688 200.378906 86.136719 200.378906 86.136719 C 200.210938 86.386719 200.046875 86.632812 199.882812 86.882812 C 199.796875 87.132812 199.714844 87.460938 199.714844 87.792969 C 199.714844 89.203125 200.875 90.28125 202.203125 90.28125 C 202.449219 90.28125 202.699219 90.199219 202.945312 90.113281 C 203.445312 90.03125 203.691406 89.867188 203.941406 89.699219 Z M 234.023438 141.660156 L 231.785156 143.8125 L 233.195312 145.222656 C 234.4375 146.382812 234.4375 148.371094 233.195312 149.613281 L 231.867188 150.941406 C 233.691406 153.09375 231.703125 157.488281 229.714844 160.882812 C 226.980469 165.523438 222.585938 170.910156 217.367188 176.132812 C 213.96875 179.53125 210.238281 182.761719 206.757812 185.332031 L 206.757812 259.332031 C 206.757812 260.574219 206.511719 261.652344 206.179688 262.730469 C 204.851562 267.289062 200.710938 270.601562 195.820312 270.601562 L 43.507812 270.601562 C 38.289062 270.601562 33.894531 266.875 32.902344 261.902344 C 29.585938 260.574219 27.101562 257.757812 26.269531 254.195312 C 22.460938 252.535156 19.808594 248.726562 19.808594 244.332031 L 19.808594 214.75 L 6.132812 214.75 C 3.566406 214.75 1.492188 212.675781 1.492188 210.109375 C 1.492188 209.695312 1.578125 209.28125 1.660156 208.867188 C 1.410156 208.203125 1.246094 207.539062 1.246094 206.792969 C 1.246094 203.726562 3.730469 201.324219 6.714844 201.324219 L 19.808594 201.324219 L 19.808594 174.390625 L 6.132812 174.390625 C 3.566406 174.390625 1.492188 172.320312 1.492188 169.75 C 1.492188 169.335938 1.578125 168.921875 1.660156 168.507812 C 1.410156 167.84375 1.246094 167.183594 1.246094 166.4375 C 1.246094 163.371094 3.730469 160.96875 6.714844 160.96875 L 19.808594 160.96875 L 19.808594 134.035156 L 6.132812 134.035156 C 3.566406 134.035156 1.492188 131.964844 1.492188 129.394531 C 1.492188 128.980469 1.578125 128.566406 1.660156 128.152344 C 1.410156 127.488281 1.246094 126.824219 1.246094 126.078125 C 1.246094 123.011719 3.730469 120.609375 6.714844 120.609375 L 19.808594 120.609375 L 19.808594 91.9375 L 6.132812 91.9375 C 3.566406 91.9375 1.492188 89.867188 1.492188 87.296875 C 1.492188 86.882812 1.578125 86.46875 1.660156 86.054688 C 1.410156 85.390625 1.246094 84.726562 1.246094 83.980469 C 1.246094 80.917969 3.730469 78.511719 6.714844 78.511719 L 19.808594 78.511719 L 19.808594 53.402344 C 19.808594 47.4375 24.613281 42.628906 30.582031 42.628906 L 170.046875 42.628906 C 168.472656 40.808594 167.066406 38.734375 165.738281 36.664062 C 164 34.59375 162.507812 32.355469 161.179688 29.953125 C 158.777344 25.558594 158.117188 20.835938 158.117188 16.277344 C 156.871094 15.449219 153.226562 11.636719 153.058594 9.566406 C 152.894531 9.152344 152.8125 8.65625 152.8125 8.074219 L 152.8125 5.589844 C 152.8125 3.269531 154.71875 1.445312 156.953125 1.445312 L 207.917969 1.445312 C 208.914062 1.445312 209.742188 1.777344 210.488281 2.355469 C 213.304688 3.847656 216.785156 7.328125 216.785156 9.566406 L 216.785156 12.050781 C 216.785156 13.875 215.792969 15.53125 214.21875 16.363281 C 214.132812 16.363281 214.050781 16.445312 213.96875 16.527344 C 213.304688 16.859375 212.558594 17.023438 211.8125 17.023438 L 210.652344 17.023438 C 210.652344 17.355469 210.570312 17.9375 210.570312 18.433594 C 210.570312 19.097656 210.570312 19.675781 210.570312 20.339844 C 210.570312 23.40625 210.570312 26.554688 209.742188 29.703125 C 208.167969 35.253906 205.019531 40.308594 200.046875 45.199219 C 198.886719 46.277344 197.726562 47.355469 196.484375 48.347656 C 198.304688 50.171875 199.964844 52.160156 201.371094 54.316406 C 201.703125 54.316406 202.035156 54.316406 202.367188 54.316406 C 213.222656 54.316406 222.917969 59.453125 229.050781 67.492188 C 235.183594 73.457031 238.996094 81.828125 238.996094 91.027344 C 238.996094 108.925781 224.742188 123.425781 207.007812 123.84375 L 206.59375 126.078125 L 206.59375 142.320312 L 216.289062 132.792969 C 217.449219 131.632812 219.4375 131.632812 220.597656 132.792969 L 222.007812 134.117188 L 223.996094 132.128906 C 226.398438 129.726562 228.800781 127.238281 231.289062 124.917969 C 232.117188 124.257812 233.027344 123.84375 234.105469 123.675781 C 236.507812 123.179688 240.238281 125.582031 241.730469 128.648438 C 242.972656 130.886719 242.476562 133.703125 240.488281 135.359375 C 238.332031 137.433594 236.175781 139.503906 234.023438 141.660156 Z M 232.035156 146.382812 L 219.4375 133.953125 C 218.859375 133.371094 217.945312 133.371094 217.449219 133.953125 L 206.59375 144.640625 L 205.765625 145.472656 L 199.136719 152.101562 L 198.304688 152.929688 L 193.75 157.402344 L 192.921875 158.234375 L 192.089844 159.0625 L 133.335938 217.152344 C 133.007812 217.484375 132.839844 217.980469 132.921875 218.394531 L 146.429688 231.902344 C 146.929688 232.070312 147.507812 231.984375 147.839844 231.570312 L 191.179688 188.8125 C 191.179688 188.644531 191.179688 188.5625 191.179688 188.398438 C 190.929688 188.3125 190.765625 188.148438 190.601562 187.980469 C 189.355469 186.738281 190.019531 183.921875 192.089844 180.191406 C 192.339844 179.695312 192.589844 179.28125 192.921875 178.785156 C 193.167969 178.371094 193.417969 177.871094 193.75 177.457031 C 194.992188 175.550781 196.484375 173.480469 198.304688 171.324219 C 198.554688 170.996094 198.886719 170.664062 199.136719 170.332031 C 199.382812 170 199.714844 169.667969 199.964844 169.335938 C 201.457031 167.597656 203.195312 165.773438 204.9375 163.949219 C 204.9375 163.949219 205.019531 163.867188 205.019531 163.867188 C 205.265625 163.617188 205.515625 163.371094 205.765625 163.203125 C 206.011719 162.957031 206.34375 162.625 206.59375 162.375 C 206.675781 162.292969 206.757812 162.210938 206.757812 162.210938 C 216.867188 152.597656 226.648438 146.960938 229.214844 149.449219 C 229.382812 149.613281 229.464844 149.78125 229.628906 150.027344 C 229.960938 150.027344 230.210938 150.113281 230.460938 150.113281 L 232.035156 148.535156 C 232.613281 147.875 232.613281 146.960938 232.035156 146.382812 Z M 230.707031 152.015625 C 230.707031 151.933594 230.625 151.933594 230.625 151.851562 C 230.460938 151.6875 230.292969 151.601562 230.046875 151.519531 C 229.960938 151.519531 229.960938 151.519531 229.878906 151.519531 C 229.714844 151.519531 229.628906 151.519531 229.464844 151.519531 C 229.300781 151.519531 229.132812 151.519531 228.886719 151.519531 C 227.558594 151.6875 225.488281 152.433594 222.503906 154.171875 C 218.027344 156.824219 212.726562 161.132812 207.585938 166.269531 C 207.339844 166.519531 207.007812 166.851562 206.757812 167.097656 C 206.675781 167.183594 206.59375 167.265625 206.59375 167.265625 C 206.34375 167.515625 206.011719 167.84375 205.765625 168.09375 C 205.515625 168.425781 205.183594 168.675781 204.9375 169.003906 C 203.113281 170.996094 201.457031 172.898438 199.964844 174.804688 C 199.714844 175.136719 199.382812 175.550781 199.136719 175.882812 C 198.886719 176.296875 198.554688 176.628906 198.304688 177.042969 C 197.3125 178.453125 196.316406 179.859375 195.570312 181.1875 C 194.824219 182.511719 194.246094 183.671875 193.832031 184.585938 C 193.417969 185.496094 193.167969 186.324219 193.003906 186.988281 C 193.003906 187.070312 193.003906 187.152344 193.003906 187.152344 C 192.921875 187.566406 192.921875 187.980469 192.921875 188.230469 C 192.921875 188.3125 192.921875 188.398438 192.921875 188.398438 C 192.921875 188.480469 192.921875 188.5625 193.003906 188.644531 C 193.085938 188.8125 193.085938 188.976562 193.167969 189.058594 C 193.167969 189.058594 193.25 189.140625 193.25 189.140625 C 193.417969 189.308594 193.582031 189.390625 193.832031 189.390625 C 194.742188 189.640625 196.316406 189.308594 198.390625 188.398438 C 198.636719 188.3125 198.96875 188.148438 199.21875 187.980469 C 199.464844 187.816406 199.796875 187.734375 200.046875 187.566406 C 201.539062 186.738281 203.195312 185.746094 205.019531 184.417969 C 205.265625 184.253906 205.597656 184.003906 205.847656 183.839844 C 206.097656 183.671875 206.425781 183.425781 206.675781 183.257812 C 206.757812 183.175781 206.84375 183.175781 206.84375 183.09375 C 209.742188 180.855469 212.890625 178.121094 216.289062 174.804688 C 221.425781 169.667969 225.734375 164.363281 228.386719 159.890625 C 231.039062 155.496094 231.371094 152.929688 230.707031 152.015625 Z M 43.507812 268.945312 L 157.121094 268.945312 L 149.332031 262.648438 L 36.878906 262.648438 C 36.132812 262.648438 35.46875 262.5625 34.808594 262.480469 C 35.882812 266.210938 39.363281 268.945312 43.507812 268.945312 Z M 32.734375 259.996094 C 32.984375 260.160156 33.316406 260.242188 33.5625 260.410156 C 33.8125 260.492188 34.144531 260.574219 34.390625 260.65625 C 35.136719 260.90625 35.96875 260.988281 36.796875 260.988281 L 147.257812 260.988281 L 140.050781 255.105469 L 30.664062 255.105469 C 29.835938 255.105469 29.007812 255.023438 28.261719 254.855469 C 29.007812 257.09375 30.664062 258.917969 32.734375 259.996094 Z M 26.105469 252.289062 C 26.355469 252.453125 26.6875 252.621094 26.933594 252.703125 C 27.183594 252.867188 27.515625 252.953125 27.761719 253.035156 C 28.675781 253.367188 29.667969 253.53125 30.664062 253.53125 L 138.0625 253.53125 L 123.226562 241.597656 L 123.0625 241.679688 L 123.144531 241.515625 L 123.226562 241.433594 L 128.367188 223.285156 L 128.035156 222.953125 C 127.207031 222.125 127.207031 220.882812 127.949219 219.96875 L 129.527344 218.230469 C 129.941406 217.816406 130.4375 217.566406 131.015625 217.484375 C 131.101562 217.484375 131.265625 217.484375 131.347656 217.484375 C 131.429688 216.902344 131.761719 216.40625 132.175781 215.992188 L 137.230469 210.9375 L 138.890625 209.28125 L 192.089844 156.65625 L 192.089844 120.691406 C 190.765625 120.03125 189.523438 119.367188 188.363281 118.621094 C 180.902344 115.140625 174.9375 109.089844 171.621094 101.632812 L 159.441406 92.933594 L 159.691406 92.933594 C 156.871094 91.773438 152.976562 86.800781 152.976562 84.398438 L 152.976562 84.148438 C 152.8125 83.734375 152.730469 83.238281 152.730469 82.738281 L 152.730469 80.253906 C 152.730469 77.933594 154.632812 76.109375 156.871094 76.109375 L 158.117188 76.109375 C 158.117188 75.945312 158.117188 75.859375 158.117188 75.695312 C 158.117188 74.535156 158.117188 73.375 158.117188 72.296875 C 157.867188 67.90625 158.613281 63.761719 160.351562 59.785156 C 160.4375 59.535156 160.601562 59.203125 160.765625 58.957031 C 160.933594 58.707031 161.015625 58.375 161.179688 58.128906 C 162.257812 55.972656 163.75 53.902344 165.40625 51.828125 C 165.492188 51.746094 165.574219 51.664062 165.65625 51.582031 C 165.820312 51.414062 165.988281 51.25 166.152344 51 C 166.402344 50.75 166.652344 50.421875 166.898438 50.171875 C 168.140625 48.847656 169.550781 47.601562 170.878906 46.359375 C 171.375 45.945312 171.789062 45.53125 172.285156 45.117188 C 172.039062 44.867188 171.789062 44.621094 171.539062 44.371094 L 30.664062 44.371094 C 25.609375 44.371094 21.546875 48.429688 21.546875 53.488281 L 21.546875 78.511719 L 33.066406 78.511719 C 33.230469 78.511719 33.398438 78.511719 33.5625 78.511719 C 33.8125 78.511719 33.976562 78.597656 34.226562 78.597656 C 34.308594 78.511719 34.308594 78.511719 34.390625 78.429688 C 35.800781 77.019531 37.707031 76.191406 39.863281 76.191406 C 44.171875 76.191406 47.652344 79.671875 47.652344 83.980469 C 47.652344 84.066406 47.652344 84.066406 47.652344 84.148438 C 47.898438 84.894531 47.984375 85.640625 47.984375 86.46875 C 47.984375 90.941406 44.335938 94.589844 39.863281 94.589844 C 37.707031 94.589844 35.800781 93.761719 34.390625 92.433594 C 34.226562 92.269531 34.0625 92.101562 33.894531 91.9375 C 33.8125 91.9375 33.730469 91.9375 33.730469 91.9375 L 21.546875 91.9375 L 21.546875 120.609375 L 33.066406 120.609375 C 33.230469 120.609375 33.398438 120.609375 33.5625 120.609375 C 33.5625 120.609375 33.5625 120.609375 33.648438 120.609375 C 33.894531 120.277344 34.144531 120.03125 34.390625 119.699219 C 35.800781 118.289062 37.707031 117.460938 39.863281 117.460938 C 44.171875 117.460938 47.652344 120.941406 47.652344 125.25 C 47.652344 125.332031 47.652344 125.332031 47.652344 125.417969 C 47.898438 126.164062 47.984375 126.90625 47.984375 127.738281 C 47.984375 132.210938 44.335938 135.859375 39.863281 135.859375 C 37.871094 135.859375 36.050781 135.113281 34.640625 133.953125 C 34.558594 133.953125 34.476562 133.953125 34.390625 133.953125 C 34.144531 133.953125 33.976562 134.035156 33.730469 134.035156 L 21.546875 134.035156 L 21.546875 160.96875 L 33.066406 160.96875 C 33.230469 160.96875 33.398438 160.96875 33.5625 160.96875 C 33.8125 160.96875 34.0625 161.050781 34.390625 161.132812 C 35.800781 159.722656 37.707031 158.894531 39.863281 158.894531 C 44.171875 158.894531 47.652344 162.375 47.652344 166.683594 C 47.652344 166.769531 47.652344 166.769531 47.652344 166.851562 C 47.898438 167.597656 47.984375 168.34375 47.984375 169.171875 C 47.984375 173.644531 44.335938 177.292969 39.863281 177.292969 C 37.707031 177.292969 35.800781 176.464844 34.390625 175.136719 C 34.144531 174.972656 33.976562 174.722656 33.730469 174.476562 C 33.730469 174.476562 33.730469 174.476562 33.648438 174.476562 L 21.546875 174.476562 L 21.546875 201.40625 L 33.066406 201.40625 C 33.230469 201.40625 33.398438 201.40625 33.5625 201.40625 C 33.8125 201.40625 34.144531 201.488281 34.390625 201.574219 C 34.640625 201.65625 34.972656 201.738281 35.222656 201.820312 C 36.546875 200.828125 38.121094 200.246094 39.945312 200.246094 C 44.253906 200.246094 47.734375 203.726562 47.734375 208.035156 C 47.734375 208.121094 47.734375 208.121094 47.734375 208.203125 C 47.984375 208.949219 48.066406 209.695312 48.066406 210.523438 C 48.066406 214.996094 44.417969 218.644531 39.945312 218.644531 C 37.789062 218.644531 35.882812 217.816406 34.476562 216.488281 C 34.144531 216.242188 33.894531 215.910156 33.648438 215.578125 C 33.480469 215.328125 33.230469 215.082031 33.066406 214.832031 L 21.546875 214.832031 L 21.546875 244.414062 C 21.546875 247.730469 23.371094 250.632812 26.105469 252.289062 Z M 2.902344 206.792969 C 2.902344 208.949219 4.640625 210.605469 6.714844 210.605469 L 33.066406 210.605469 C 33.148438 210.605469 33.316406 210.605469 33.398438 210.605469 C 33.480469 210.605469 33.480469 210.605469 33.5625 210.605469 C 33.8125 210.605469 34.144531 210.523438 34.390625 210.441406 C 35.882812 209.941406 36.960938 208.535156 36.960938 206.875 C 36.960938 206.875 36.960938 206.875 36.960938 206.792969 C 36.960938 206.128906 36.796875 205.550781 36.464844 204.96875 C 36.296875 204.722656 36.132812 204.472656 35.96875 204.308594 C 35.800781 204.058594 35.550781 203.894531 35.304688 203.726562 C 35.054688 203.5625 34.722656 203.394531 34.390625 203.230469 C 34.226562 203.148438 33.976562 203.0625 33.8125 203.0625 C 33.730469 203.0625 33.648438 203.0625 33.5625 203.0625 C 33.398438 203.0625 33.230469 202.980469 33.066406 202.980469 L 6.714844 202.980469 C 4.640625 202.980469 2.902344 204.640625 2.902344 206.792969 Z M 46.324219 210.441406 C 46.324219 206.875 43.425781 203.976562 39.863281 203.976562 C 39.199219 203.976562 38.535156 204.058594 37.957031 204.308594 C 38.371094 205.054688 38.617188 205.964844 38.617188 206.875 C 38.617188 207.621094 38.453125 208.285156 38.203125 208.949219 C 38.289062 209.363281 38.371094 209.777344 38.371094 210.191406 C 38.371094 212.097656 37.210938 213.753906 35.46875 214.5 C 35.304688 214.582031 35.136719 214.667969 34.890625 214.667969 C 36.050781 216.074219 37.871094 216.988281 39.863281 216.988281 C 42.511719 216.988281 44.75 215.410156 45.746094 213.089844 C 46.160156 212.261719 46.324219 211.351562 46.324219 210.441406 Z M 2.902344 166.4375 C 2.902344 168.589844 4.640625 170.25 6.714844 170.25 L 33.066406 170.25 C 33.230469 170.25 33.316406 170.25 33.480469 170.164062 C 33.480469 170.164062 33.480469 170.164062 33.5625 170.164062 C 33.8125 170.164062 34.144531 170.082031 34.390625 170 C 35.882812 169.503906 36.960938 168.09375 36.960938 166.4375 C 36.960938 166.4375 36.960938 166.4375 36.960938 166.355469 C 36.960938 165.441406 36.546875 164.53125 35.96875 163.867188 C 35.800781 163.617188 35.550781 163.453125 35.386719 163.289062 C 35.136719 163.121094 34.890625 162.957031 34.640625 162.875 C 34.558594 162.875 34.476562 162.875 34.476562 162.789062 C 34.226562 162.707031 33.894531 162.625 33.648438 162.625 C 33.480469 162.625 33.398438 162.625 33.230469 162.625 C 33.230469 162.625 33.148438 162.625 33.148438 162.625 L 6.714844 162.625 C 4.640625 162.625 2.902344 164.28125 2.902344 166.4375 Z M 46.324219 169.089844 C 46.324219 165.523438 43.425781 162.625 39.863281 162.625 C 39.03125 162.625 38.203125 162.789062 37.375 163.121094 C 38.121094 164.035156 38.535156 165.195312 38.535156 166.4375 C 38.535156 167.183594 38.371094 167.84375 38.121094 168.507812 C 38.203125 168.921875 38.289062 169.335938 38.289062 169.75 C 38.289062 171.324219 37.457031 172.734375 36.296875 173.5625 C 36.050781 173.730469 35.800781 173.8125 35.550781 173.976562 C 36.710938 174.972656 38.121094 175.550781 39.777344 175.550781 C 42.429688 175.550781 44.667969 173.976562 45.664062 171.65625 C 46.160156 170.910156 46.324219 170 46.324219 169.089844 Z M 2.902344 126.078125 C 2.902344 128.234375 4.640625 129.890625 6.714844 129.890625 L 33.066406 129.890625 C 33.230469 129.890625 33.398438 129.890625 33.5625 129.808594 C 33.648438 129.808594 33.730469 129.808594 33.730469 129.808594 C 33.976562 129.808594 34.144531 129.726562 34.390625 129.644531 C 35.882812 129.144531 36.960938 127.738281 36.960938 126.078125 C 36.960938 126.078125 36.960938 126.078125 36.960938 125.996094 C 36.960938 124.753906 36.382812 123.675781 35.46875 123.011719 C 35.222656 122.847656 34.972656 122.683594 34.722656 122.597656 C 34.640625 122.515625 34.558594 122.515625 34.390625 122.515625 C 34.226562 122.433594 34.0625 122.351562 33.8125 122.351562 C 33.730469 122.351562 33.648438 122.351562 33.5625 122.351562 C 33.398438 122.351562 33.230469 122.265625 33.066406 122.265625 L 6.714844 122.265625 C 4.640625 122.183594 2.902344 123.925781 2.902344 126.078125 C 2.902344 125.996094 2.902344 126.078125 2.902344 126.078125 Z M 46.324219 127.738281 C 46.324219 124.171875 43.425781 121.273438 39.863281 121.273438 C 38.785156 121.273438 37.707031 121.523438 36.796875 122.019531 C 37.871094 123.011719 38.617188 124.421875 38.617188 126.078125 C 38.617188 126.824219 38.453125 127.488281 38.203125 128.152344 C 38.289062 128.566406 38.371094 128.980469 38.371094 129.394531 C 38.371094 130.636719 37.871094 131.714844 37.128906 132.542969 C 36.878906 132.792969 36.710938 132.957031 36.382812 133.207031 C 37.375 133.867188 38.617188 134.199219 39.863281 134.199219 C 42.511719 134.199219 44.75 132.625 45.746094 130.304688 C 46.160156 129.558594 46.324219 128.648438 46.324219 127.738281 Z M 2.902344 83.898438 C 2.902344 86.054688 4.640625 87.710938 6.714844 87.710938 L 32.984375 87.710938 C 33.148438 87.710938 33.316406 87.710938 33.398438 87.628906 C 33.648438 87.628906 33.976562 87.546875 34.226562 87.460938 C 35.71875 86.964844 36.796875 85.558594 36.796875 83.898438 C 36.796875 83.898438 36.796875 83.898438 36.796875 83.816406 C 36.796875 82.820312 36.382812 81.910156 35.71875 81.246094 C 35.550781 81.082031 35.304688 80.832031 35.054688 80.667969 C 34.808594 80.5 34.558594 80.335938 34.226562 80.253906 C 34.226562 80.253906 34.144531 80.253906 34.144531 80.253906 C 33.894531 80.171875 33.5625 80.085938 33.316406 80.085938 C 33.148438 80.085938 32.984375 80.003906 32.816406 80.003906 L 6.714844 80.003906 C 4.640625 80.003906 2.902344 81.746094 2.902344 83.898438 C 2.902344 83.816406 2.902344 83.898438 2.902344 83.898438 Z M 46.324219 86.386719 C 46.324219 82.820312 43.425781 79.921875 39.863281 79.921875 C 38.949219 79.921875 38.121094 80.085938 37.292969 80.417969 C 38.039062 81.332031 38.535156 82.574219 38.535156 83.898438 C 38.535156 84.644531 38.371094 85.308594 38.121094 85.972656 C 38.203125 86.386719 38.289062 86.800781 38.289062 87.214844 C 38.289062 88.707031 37.542969 90.113281 36.464844 90.941406 C 36.214844 91.109375 35.96875 91.273438 35.71875 91.359375 C 36.796875 92.269531 38.289062 92.847656 39.777344 92.847656 C 42.429688 92.847656 44.667969 91.273438 45.664062 88.953125 C 46.160156 88.125 46.324219 87.296875 46.324219 86.386719 Z M 162.757812 29.371094 C 163.253906 30.285156 163.832031 31.195312 164.414062 32.023438 C 165.242188 33.265625 166.152344 34.507812 167.148438 35.667969 C 169.300781 38.238281 171.707031 40.558594 174.359375 42.546875 C 174.6875 42.796875 174.9375 43.046875 175.269531 43.210938 L 175.433594 43.375 L 176.097656 43.875 L 175.683594 44.207031 L 174.9375 44.867188 C 174.855469 44.949219 174.773438 44.949219 174.6875 45.035156 C 174.605469 45.117188 174.441406 45.199219 174.359375 45.28125 C 174.273438 45.367188 174.109375 45.449219 174.027344 45.53125 C 173.859375 45.695312 173.613281 45.945312 173.445312 46.109375 C 172.949219 46.527344 172.453125 47.023438 171.953125 47.4375 C 171.042969 48.265625 170.132812 49.09375 169.21875 50.007812 C 168.972656 50.253906 168.640625 50.585938 168.390625 50.835938 C 168.140625 51.082031 167.894531 51.414062 167.5625 51.664062 C 167.3125 51.910156 167.066406 52.242188 166.816406 52.492188 C 165.242188 54.230469 164 56.054688 162.921875 57.960938 C 162.757812 58.210938 162.589844 58.542969 162.507812 58.789062 C 162.339844 59.039062 162.257812 59.371094 162.09375 59.617188 C 160.1875 63.511719 159.441406 67.65625 159.691406 72.050781 C 159.773438 73.210938 159.773438 74.371094 159.691406 75.613281 C 159.691406 75.777344 159.691406 75.859375 159.691406 76.027344 L 170.878906 76.027344 C 171.375 74.785156 171.871094 73.539062 172.535156 72.378906 C 175.269531 67.242188 179.328125 62.851562 184.21875 59.703125 C 184.632812 59.453125 185.128906 59.121094 185.542969 58.871094 C 186.042969 58.625 186.539062 58.292969 187.035156 58.042969 C 188.609375 57.214844 190.183594 56.550781 191.925781 56.054688 C 191.925781 56.054688 192.007812 56.054688 192.007812 56.054688 C 192.257812 55.972656 192.503906 55.890625 192.753906 55.808594 C 193.003906 55.722656 193.335938 55.640625 193.582031 55.558594 C 194.328125 55.390625 195.15625 55.144531 195.902344 55.0625 C 196.234375 54.976562 196.484375 54.976562 196.816406 54.894531 C 197.144531 54.8125 197.394531 54.8125 197.726562 54.730469 C 197.976562 54.730469 198.304688 54.648438 198.554688 54.648438 C 198.804688 54.648438 199.050781 54.5625 199.300781 54.5625 C 198.96875 54.066406 198.636719 53.652344 198.304688 53.15625 C 197.144531 51.664062 195.902344 50.253906 194.496094 48.929688 C 194.328125 48.761719 194.082031 48.515625 193.914062 48.347656 C 192.921875 47.355469 191.84375 46.527344 190.683594 45.613281 C 190.351562 45.367188 190.101562 45.199219 189.855469 44.949219 L 188.695312 44.121094 L 189.441406 43.460938 C 190.019531 42.960938 190.683594 42.382812 191.261719 41.886719 C 192.503906 40.808594 193.75 39.730469 194.910156 38.652344 C 199.632812 34.011719 202.699219 29.207031 204.191406 23.902344 C 205.019531 21.003906 205.019531 18.101562 205.019531 15.035156 C 205.019531 14.371094 205.019531 13.710938 205.019531 13.128906 C 205.019531 12.882812 205.019531 12.550781 205.019531 12.382812 L 159.691406 12.382812 C 159.691406 13.378906 159.605469 14.371094 159.605469 15.367188 C 159.605469 15.617188 159.605469 15.945312 159.605469 16.195312 C 159.605469 16.445312 159.605469 16.777344 159.605469 17.023438 C 159.691406 21.167969 160.351562 25.3125 162.507812 29.207031 C 162.671875 29.207031 162.757812 29.289062 162.757812 29.371094 Z M 212.0625 5.421875 C 212.0625 5.503906 212.0625 5.503906 212.0625 5.589844 L 212.0625 8.074219 C 212.0625 10.394531 210.15625 12.21875 207.917969 12.21875 L 206.757812 12.21875 C 206.757812 12.464844 206.757812 12.714844 206.757812 12.964844 C 206.757812 13.625 206.757812 14.289062 206.757812 14.953125 C 206.757812 18.019531 206.757812 21.167969 205.929688 24.316406 C 204.355469 29.867188 201.207031 34.925781 196.234375 39.8125 C 195.074219 40.972656 193.832031 42.050781 192.503906 43.128906 C 192.175781 43.375 191.84375 43.707031 191.511719 44.039062 C 191.675781 44.121094 191.761719 44.207031 191.925781 44.371094 C 193.167969 45.28125 194.328125 46.277344 195.40625 47.269531 C 196.648438 46.195312 197.808594 45.199219 198.96875 44.039062 C 203.691406 39.398438 206.757812 34.59375 208.25 29.289062 C 209.078125 26.386719 209.078125 23.488281 209.078125 20.421875 C 209.078125 19.757812 209.078125 19.097656 209.078125 18.515625 C 209.078125 17.023438 209.078125 16.195312 209.742188 15.617188 L 209.992188 15.449219 L 211.898438 15.449219 C 212.394531 15.449219 212.890625 15.285156 213.386719 15.117188 C 213.472656 15.117188 213.472656 15.035156 213.472656 15.035156 C 214.546875 14.457031 215.210938 13.296875 215.210938 12.136719 L 215.210938 9.648438 C 215.128906 8.65625 213.71875 6.832031 212.0625 5.421875 Z M 156.375 12.21875 C 156.953125 12.882812 157.535156 13.625 158.113281 14.125 C 158.113281 13.542969 158.113281 12.882812 158.113281 12.300781 L 156.871094 12.300781 C 156.789062 12.300781 156.539062 12.21875 156.375 12.21875 Z M 202.367188 56.054688 C 202.035156 56.054688 201.785156 56.054688 201.539062 56.054688 C 201.457031 56.054688 201.371094 56.054688 201.289062 56.054688 C 201.042969 56.054688 200.792969 56.054688 200.542969 56.054688 C 200.460938 56.054688 200.296875 56.054688 200.210938 56.054688 C 199.714844 56.054688 199.300781 56.136719 198.804688 56.136719 C 198.554688 56.136719 198.222656 56.222656 197.976562 56.222656 C 197.644531 56.222656 197.394531 56.304688 197.144531 56.386719 C 195.984375 56.550781 194.910156 56.800781 193.75 57.132812 C 193.5 57.214844 193.25 57.296875 192.921875 57.382812 C 192.671875 57.464844 192.339844 57.546875 192.089844 57.628906 C 191.84375 57.710938 191.59375 57.796875 191.34375 57.878906 C 190.683594 58.128906 190.019531 58.375 189.355469 58.707031 C 188.777344 58.957031 188.195312 59.203125 187.617188 59.535156 C 182.148438 62.4375 177.589844 66.828125 174.523438 72.214844 C 173.859375 73.375 173.28125 74.617188 172.78125 75.859375 C 171.707031 78.511719 170.960938 81.246094 170.628906 84.230469 C 170.628906 84.480469 170.546875 84.8125 170.546875 85.058594 C 170.546875 85.308594 170.460938 85.640625 170.460938 85.886719 C 170.460938 86.136719 170.460938 86.46875 170.460938 86.71875 C 170.460938 87.132812 170.460938 87.460938 170.460938 87.878906 C 170.460938 89.039062 170.546875 90.199219 170.628906 91.273438 C 170.628906 91.523438 170.710938 91.855469 170.710938 92.101562 C 170.710938 92.101562 170.710938 92.1875 170.710938 92.1875 C 170.710938 92.433594 170.792969 92.683594 170.792969 92.933594 C 171.375 96.742188 172.699219 100.222656 174.441406 103.457031 C 175.933594 106.109375 177.753906 108.511719 179.910156 110.664062 C 183.308594 113.980469 187.367188 116.550781 192.007812 118.125 C 192.257812 118.207031 192.589844 118.289062 192.835938 118.371094 C 193.085938 118.457031 193.417969 118.539062 193.664062 118.621094 C 195.15625 119.035156 196.648438 119.367188 198.222656 119.53125 C 198.472656 119.53125 198.804688 119.617188 199.050781 119.617188 C 199.300781 119.617188 199.632812 119.699219 199.882812 119.699219 C 200.710938 119.78125 201.539062 119.78125 202.367188 119.78125 C 203.195312 119.78125 204.023438 119.699219 204.851562 119.699219 C 205.101562 119.699219 205.433594 119.699219 205.683594 119.617188 C 205.929688 119.617188 206.261719 119.53125 206.511719 119.53125 C 222.171875 117.460938 234.355469 104.035156 234.355469 87.792969 C 234.355469 76.523438 228.46875 66.664062 219.6875 60.945312 C 214.714844 57.710938 208.746094 55.808594 202.367188 55.808594 C 202.449219 56.054688 202.449219 56.054688 202.367188 56.054688 Z M 131.429688 219.222656 C 131.265625 219.140625 131.183594 219.058594 131.015625 219.058594 C 130.851562 219.058594 130.769531 219.140625 130.6875 219.222656 L 129.109375 220.964844 C 129.027344 221.046875 129.027344 221.046875 129.027344 221.128906 C 128.945312 221.296875 129.027344 221.542969 129.109375 221.628906 L 135.988281 228.589844 L 143.117188 235.796875 C 143.28125 235.964844 143.613281 235.964844 143.777344 235.796875 L 145.683594 234.222656 C 145.769531 234.140625 145.851562 233.972656 145.851562 233.808594 C 145.851562 233.644531 145.769531 233.558594 145.683594 233.476562 Z M 125.464844 239.195312 L 139.96875 235.050781 L 134.828125 229.832031 L 129.609375 224.527344 L 125.546875 239.03125 Z M 155.628906 86.632812 C 157.039062 88.871094 159.605469 91.441406 160.851562 91.441406 L 168.972656 91.441406 C 168.886719 90.28125 168.804688 89.203125 168.804688 88.042969 C 168.804688 87.628906 168.804688 87.296875 168.804688 86.882812 L 157.453125 86.882812 L 157.453125 86.964844 L 157.371094 86.882812 L 156.953125 86.882812 C 156.457031 86.882812 156.042969 86.800781 155.628906 86.632812 Z M 193.75 155.082031 L 198.304688 150.609375 L 198.304688 125.417969 L 193.75 122.433594 Z M 204.9375 143.980469 L 204.9375 129.726562 L 199.964844 126.410156 L 199.964844 148.953125 Z M 230.707031 142.652344 L 232.863281 140.5 C 235.101562 138.34375 237.171875 136.273438 239.328125 134.117188 C 240.734375 132.957031 241.066406 130.96875 240.238281 129.394531 C 238.914062 126.824219 235.929688 125.003906 234.355469 125.25 C 233.609375 125.332031 232.945312 125.664062 232.367188 126.078125 C 229.960938 128.398438 227.476562 130.886719 225.15625 133.207031 L 223.332031 135.027344 Z M 70.355469 103.703125 C 71.101562 104.285156 71.847656 104.949219 72.511719 105.609375 C 73.257812 106.523438 73.921875 107.515625 74.5 108.511719 C 74.667969 108.925781 74.996094 109.175781 75.328125 109.421875 C 75.742188 109.671875 76.15625 109.753906 76.574219 109.753906 C 77.316406 109.753906 78.0625 109.339844 78.5625 108.675781 C 79.140625 107.929688 79.636719 107.269531 80.21875 106.523438 C 81.378906 104.949219 82.621094 103.375 83.863281 101.882812 C 85.4375 99.976562 87.34375 97.820312 89.664062 95.914062 C 91.65625 94.175781 93.976562 92.601562 96.542969 91.359375 C 96.792969 91.191406 97.042969 91.027344 97.207031 90.777344 L 97.371094 90.613281 L 96.957031 89.699219 L 96.625 89.78125 C 96.296875 89.867188 96.046875 89.949219 95.714844 90.03125 C 95.050781 90.199219 94.304688 90.363281 93.644531 90.613281 C 92.234375 91.109375 90.910156 91.773438 89.582031 92.519531 C 86.101562 94.507812 83.203125 97.242188 80.632812 99.726562 C 79.636719 100.722656 78.5625 101.714844 77.566406 102.792969 L 76.820312 103.539062 C 76.820312 103.539062 76.820312 103.539062 76.738281 103.621094 C 76.574219 103.703125 76.40625 103.621094 76.324219 103.539062 L 76.15625 103.289062 C 75.082031 101.382812 74.003906 99.480469 71.683594 98.648438 L 71.601562 98.648438 C 71.269531 98.566406 71.019531 98.648438 70.773438 98.816406 C 70.523438 98.980469 70.355469 99.230469 70.273438 99.5625 L 70.191406 99.808594 C 69.941406 100.722656 69.777344 101.632812 69.613281 102.460938 C 69.613281 102.960938 70.109375 103.457031 70.355469 103.703125 Z M 70.355469 139.007812 C 71.101562 139.585938 71.847656 140.25 72.511719 140.914062 C 73.257812 141.824219 73.921875 142.820312 74.5 143.8125 C 74.667969 144.226562 74.996094 144.476562 75.328125 144.726562 C 75.742188 144.972656 76.15625 145.054688 76.574219 145.054688 C 77.316406 145.054688 78.0625 144.640625 78.5625 143.980469 C 79.140625 143.234375 79.636719 142.570312 80.21875 141.824219 C 81.378906 140.25 82.621094 138.675781 83.863281 137.183594 C 85.4375 135.277344 87.34375 133.125 89.664062 131.21875 C 91.65625 129.476562 93.976562 127.902344 96.542969 126.660156 C 96.792969 126.492188 97.042969 126.328125 97.207031 126.078125 L 97.371094 125.914062 L 96.957031 125.003906 L 96.625 125.085938 C 96.296875 125.167969 96.046875 125.25 95.714844 125.332031 C 95.050781 125.5 94.304688 125.664062 93.644531 125.914062 C 92.152344 126.410156 90.824219 127.15625 89.5 127.902344 C 86.019531 129.890625 83.203125 132.542969 80.632812 135.027344 C 79.636719 136.023438 78.5625 137.019531 77.566406 138.09375 L 76.820312 138.839844 C 76.820312 138.839844 76.738281 138.839844 76.738281 138.925781 C 76.574219 139.007812 76.40625 138.925781 76.324219 138.839844 L 76.15625 138.59375 C 75.082031 136.6875 74.003906 134.78125 71.683594 133.953125 L 71.601562 133.953125 C 71.019531 133.785156 70.355469 134.199219 70.191406 134.78125 L 70.109375 135.027344 C 69.859375 135.941406 69.695312 136.851562 69.527344 137.679688 C 69.613281 138.261719 70.109375 138.839844 70.355469 139.007812 Z M 70.355469 139.007812 " fill-opacity="1" fill-rule="nonzero"/></g></g></g></g><g transform="matrix(1, 0, 0, 1, 74, 156)"><g clip-path="url(#05b4048685)"><g fill="#ffffff" fill-opacity="1"><g transform="translate(6.873331, 104.317725)"><g><path d="M 20.28125 0 C 21.40625 -3.3125 22.1875 -6.625 22.625 -9.9375 C 23.0625 -13.257812 23.28125 -17.300781 23.28125 -22.0625 L 23.28125 -68.828125 C 18.71875 -68.828125 14.351562 -68.367188 10.1875 -67.453125 C 6.019531 -66.546875 2.28125 -65.28125 -1.03125 -63.65625 L -1.21875 -63.84375 L 2.625 -76.890625 L 60.09375 -76.890625 L 54.828125 -64.6875 C 51.828125 -66.125 48.757812 -67.171875 45.625 -67.828125 C 42.5 -68.492188 38.773438 -68.828125 34.453125 -68.828125 L 34.453125 -22.0625 C 34.453125 -17.425781 34.6875 -13.429688 35.15625 -10.078125 C 35.625 -6.734375 36.394531 -3.375 37.46875 0 Z M 20.28125 0 "/></g></g></g><g fill="#ffffff" fill-opacity="1"><g transform="translate(57.908934, 104.317725)"><g><path d="M 5.546875 0 C 6.484375 -2.4375 7.140625 -4.765625 7.515625 -6.984375 C 7.890625 -9.210938 8.078125 -11.734375 8.078125 -14.546875 L 8.078125 -38.96875 C 8.078125 -41.78125 7.921875 -44.28125 7.609375 -46.46875 C 7.296875 -48.664062 6.734375 -50.984375 5.921875 -53.421875 L 19.34375 -53.421875 C 18.96875 -51.296875 18.78125 -48.976562 18.78125 -46.46875 L 18.78125 -40.9375 C 21.53125 -45.820312 24.09375 -49.234375 26.46875 -51.171875 C 28.851562 -53.109375 31.515625 -54.078125 34.453125 -54.078125 C 36.023438 -54.078125 37.34375 -53.859375 38.40625 -53.421875 L 37 -40.375 C 34.113281 -42.125 31.609375 -43 29.484375 -43 C 25.535156 -43 21.96875 -41.15625 18.78125 -37.46875 L 18.78125 -14.546875 C 18.78125 -11.671875 18.96875 -9.132812 19.34375 -6.9375 C 19.71875 -4.75 20.40625 -2.4375 21.40625 0 Z M 5.546875 0 "/></g></g></g><g fill="#ffffff" fill-opacity="1"><g transform="translate(96.283285, 104.317725)"><g><path d="M 21.6875 -54.265625 C 27.507812 -54.265625 31.921875 -52.835938 34.921875 -49.984375 C 37.929688 -47.140625 39.4375 -43 39.4375 -37.5625 L 39.4375 -14.546875 C 39.4375 -11.484375 39.65625 -8.882812 40.09375 -6.75 C 40.53125 -4.625 41.28125 -2.375 42.34375 0 L 28.734375 0 L 28.734375 -6.015625 C 25.785156 -4.316406 22.8125 -2.25 19.8125 0.1875 C 19.375 0.25 18.6875 0.28125 17.75 0.28125 C 12.738281 0.28125 8.851562 -0.921875 6.09375 -3.328125 C 3.34375 -5.742188 1.96875 -8.984375 1.96875 -13.046875 C 1.96875 -15.929688 2.875 -18.484375 4.6875 -20.703125 C 6.507812 -22.921875 9.734375 -25.128906 14.359375 -27.328125 C 17.242188 -28.703125 22.035156 -30.796875 28.734375 -33.609375 L 28.734375 -35.765625 C 28.734375 -38.898438 27.835938 -41.34375 26.046875 -43.09375 C 24.265625 -44.84375 21.84375 -45.71875 18.78125 -45.71875 C 14.832031 -45.71875 10.921875 -44.5 7.046875 -42.0625 L 6.859375 -42.25 L 10.609375 -52.578125 C 14.054688 -53.703125 17.75 -54.265625 21.6875 -54.265625 Z M 15.203125 -23.84375 C 14.015625 -21.65625 13.421875 -19.34375 13.421875 -16.90625 C 13.421875 -11.332031 17.332031 -8.546875 25.15625 -8.546875 C 26.289062 -8.546875 27.484375 -8.671875 28.734375 -8.921875 L 28.734375 -23.84375 Z M 15.203125 -23.84375 "/></g></g></g><g fill="#ffffff" fill-opacity="1"><g transform="translate(144.510773, 104.317725)"><g><path d="M 31.265625 -54.265625 C 35.085938 -54.265625 38.875 -53.828125 42.625 -52.953125 L 41.6875 -40.09375 L 41.40625 -40 C 39.03125 -42.3125 36.867188 -43.921875 34.921875 -44.828125 C 32.984375 -45.734375 30.984375 -46.1875 28.921875 -46.1875 C 24.847656 -46.1875 21.476562 -44.703125 18.8125 -41.734375 C 16.15625 -38.765625 14.828125 -34.367188 14.828125 -28.546875 C 14.828125 -24.222656 15.59375 -20.507812 17.125 -17.40625 C 18.664062 -14.3125 20.828125 -11.9375 23.609375 -10.28125 C 26.398438 -8.625 29.578125 -7.796875 33.140625 -7.796875 C 34.890625 -7.796875 36.53125 -7.9375 38.0625 -8.21875 C 39.601562 -8.5 41.28125 -9.015625 43.09375 -9.765625 L 43.28125 -9.578125 L 38.125 -0.46875 C 35.675781 0.28125 32.796875 0.65625 29.484375 0.65625 C 24.785156 0.65625 20.460938 -0.28125 16.515625 -2.15625 C 12.578125 -4.03125 9.382812 -6.957031 6.9375 -10.9375 C 4.5 -14.914062 3.28125 -19.875 3.28125 -25.8125 C 3.28125 -31.195312 4.40625 -36.046875 6.65625 -40.359375 C 8.914062 -44.679688 12.15625 -48.078125 16.375 -50.546875 C 20.601562 -53.023438 25.566406 -54.265625 31.265625 -54.265625 Z M 31.265625 -54.265625 "/></g></g></g><g fill="#ffffff" fill-opacity="1"><g transform="translate(190.861708, 104.317725)"><g><path d="M 18.59375 -14.546875 C 18.59375 -11.671875 18.78125 -9.132812 19.15625 -6.9375 C 19.53125 -4.75 20.21875 -2.4375 21.21875 0 L 5.359375 0 C 6.296875 -2.4375 6.953125 -4.765625 7.328125 -6.984375 C 7.703125 -9.210938 7.890625 -11.734375 7.890625 -14.546875 L 7.890625 -56.984375 C 7.890625 -61.179688 7.6875 -64.546875 7.28125 -67.078125 C 6.875 -69.617188 6.234375 -71.984375 5.359375 -74.171875 L 20.84375 -77.171875 C 20.15625 -74.421875 19.609375 -70.804688 19.203125 -66.328125 C 18.796875 -61.859375 18.59375 -57.117188 18.59375 -52.109375 Z M 39.71875 -15.6875 C 42.40625 -11.363281 46.285156 -6.226562 51.359375 -0.28125 L 51.359375 0 L 34.078125 0 C 34.078125 -1.4375 33.765625 -3.015625 33.140625 -4.734375 C 32.515625 -6.460938 31.453125 -8.546875 29.953125 -10.984375 L 18.6875 -28.921875 L 32.109375 -46.09375 C 33.109375 -47.414062 33.84375 -48.609375 34.3125 -49.671875 C 34.78125 -50.734375 35.078125 -51.984375 35.203125 -53.421875 L 50.890625 -53.421875 L 50.890625 -53.046875 C 48.640625 -51.359375 46.570312 -49.554688 44.6875 -47.640625 C 42.8125 -45.734375 40.6875 -43.28125 38.3125 -40.28125 L 30.421875 -30.234375 Z M 39.71875 -15.6875 "/></g></g></g></g></g><g transform="matrix(1, 0, 0, 1, 33, 82)"><g clip-path="url(#46612495c9)"><g fill="#ffffff" fill-opacity="1"><g transform="translate(0.735494, 94.83606)"><g><path d="M 5.296875 0 C 6.273438 -3.082031 6.976562 -6.144531 7.40625 -9.1875 C 7.832031 -12.238281 8.046875 -15.878906 8.046875 -20.109375 L 8.046875 -49.953125 C 8.046875 -54.179688 7.800781 -57.789062 7.3125 -60.78125 C 6.832031 -63.769531 5.992188 -66.835938 4.796875 -69.984375 C 9.015625 -70.378906 12.832031 -70.578125 16.25 -70.578125 C 25.894531 -70.578125 34.109375 -69.117188 40.890625 -66.203125 C 47.679688 -63.296875 52.816406 -59.21875 56.296875 -53.96875 C 59.773438 -48.726562 61.515625 -42.601562 61.515625 -35.59375 C 61.515625 -28.226562 59.703125 -21.863281 56.078125 -16.5 C 52.453125 -11.144531 47.457031 -7.054688 41.09375 -4.234375 C 34.738281 -1.410156 27.539062 0 19.5 0 Z M 18.90625 -6.84375 C 28.375 -7.300781 35.875 -9.878906 41.40625 -14.578125 C 46.9375 -19.285156 49.703125 -26.003906 49.703125 -34.734375 C 49.703125 -40.316406 48.445312 -45.25 45.9375 -49.53125 C 43.425781 -53.8125 39.847656 -57.175781 35.203125 -59.625 C 30.554688 -62.082031 25.066406 -63.453125 18.734375 -63.734375 C 18.390625 -60.421875 18.21875 -56.226562 18.21875 -51.15625 L 18.21875 -20.453125 C 18.21875 -14.910156 18.445312 -10.375 18.90625 -6.84375 Z M 18.90625 -6.84375 "/></g></g></g><g fill="#ffffff" fill-opacity="1"><g transform="translate(67.876967, 94.83606)"><g><path d="M 41.0625 -30.109375 C 41.0625 -27.890625 40.976562 -26.09375 40.8125 -24.71875 L 13.515625 -23.953125 C 13.742188 -18.304688 15.171875 -14.226562 17.796875 -11.71875 C 20.421875 -9.207031 23.753906 -7.953125 27.796875 -7.953125 C 29.742188 -7.953125 31.6875 -8.304688 33.625 -9.015625 C 35.5625 -9.734375 37.753906 -10.945312 40.203125 -12.65625 L 40.375 -12.484375 L 37.046875 -1.796875 C 33.617188 -0.203125 29.851562 0.59375 25.75 0.59375 C 18.625 0.59375 13.050781 -1.457031 9.03125 -5.5625 C 5.007812 -9.664062 3 -15.738281 3 -23.78125 C 3 -29.195312 3.9375 -33.828125 5.8125 -37.671875 C 7.695312 -41.523438 10.265625 -44.453125 13.515625 -46.453125 C 16.765625 -48.453125 20.359375 -49.453125 24.296875 -49.453125 C 29.773438 -49.453125 33.9375 -47.738281 36.78125 -44.3125 C 39.632812 -40.894531 41.0625 -36.160156 41.0625 -30.109375 Z M 32.84375 -30.109375 C 32.84375 -34.273438 32.03125 -37.441406 30.40625 -39.609375 C 28.78125 -41.773438 26.398438 -42.859375 23.265625 -42.859375 C 17.617188 -42.859375 14.398438 -38.609375 13.609375 -30.109375 Z M 32.84375 -30.109375 "/></g></g></g><g fill="#ffffff" fill-opacity="1"><g transform="translate(113.464844, 94.83606)"><g><path d="M 18.984375 -70.3125 C 18.359375 -67.8125 17.859375 -64.519531 17.484375 -60.4375 C 17.117188 -56.363281 16.9375 -52.046875 16.9375 -47.484375 L 16.9375 -39.78125 L 24.8125 -47.984375 C 26.519531 -48.847656 28.628906 -49.28125 31.140625 -49.28125 C 34.273438 -49.28125 37.109375 -48.453125 39.640625 -46.796875 C 42.179688 -45.140625 44.179688 -42.753906 45.640625 -39.640625 C 47.097656 -36.535156 47.828125 -32.875 47.828125 -28.65625 C 47.828125 -22.726562 46.523438 -17.597656 43.921875 -13.265625 C 41.328125 -8.929688 37.773438 -5.632812 33.265625 -3.375 C 28.765625 -1.125 23.722656 0 18.140625 0 L 4.875 0 C 6.414062 -4.90625 7.1875 -10.066406 7.1875 -15.484375 L 7.1875 -51.921875 C 7.1875 -55.742188 7 -58.8125 6.625 -61.125 C 6.257812 -63.4375 5.675781 -65.585938 4.875 -67.578125 Z M 24.984375 -39.859375 C 22.128906 -39.859375 19.445312 -38.921875 16.9375 -37.046875 L 16.9375 -7.1875 C 18.707031 -6.789062 20.703125 -6.59375 22.921875 -6.59375 C 27.085938 -6.59375 30.539062 -8.113281 33.28125 -11.15625 C 36.019531 -14.207031 37.390625 -18.585938 37.390625 -24.296875 C 37.390625 -27.941406 36.773438 -30.921875 35.546875 -33.234375 C 34.316406 -35.546875 32.773438 -37.226562 30.921875 -38.28125 C 29.066406 -39.332031 27.085938 -39.859375 24.984375 -39.859375 Z M 24.984375 -39.859375 "/></g></g></g><g fill="#ffffff" fill-opacity="1"><g transform="translate(165.8096, 94.83606)"><g><path d="M 17.53125 -48.671875 L 30.96875 -48.671875 L 30.96875 -42.265625 L 17.53125 -42.265625 L 17.53125 -13.265625 C 17.53125 -11.097656 18.03125 -9.539062 19.03125 -8.59375 C 20.03125 -7.65625 21.585938 -7.1875 23.703125 -7.1875 C 26.203125 -7.1875 28.992188 -7.671875 32.078125 -8.640625 L 32.25 -8.46875 L 26.34375 -0.25 C 23.71875 0.257812 21.4375 0.515625 19.5 0.515625 C 15.394531 0.515625 12.414062 -0.367188 10.5625 -2.140625 C 8.707031 -3.910156 7.78125 -6.816406 7.78125 -10.859375 L 7.78125 -42.265625 L 1.546875 -42.265625 L 1.546875 -42.609375 L 17.1875 -59.203125 L 17.53125 -59.203125 Z M 17.53125 -48.671875 "/></g></g></g></g></g></g></g></svg>